<svg width="48" height="32" viewBox="0 0 48 32" fill="none" xmlns="http://www.w3.org/2000/svg">
<g clip-path="url(#clip0_12_19)">
<path fill-rule="evenodd" clip-rule="evenodd" d="M10.3942 11.0925C7.38236 17.058 3.76864 24.2045 2.36377 26.9735L-0.190476 32.0082H2.75434H5.69907L8.27228 26.9735C9.68749 24.2045 11.8527 19.965 13.0839 17.5527C14.315 15.1403 15.4502 12.9507 15.6065 12.687L15.8906 12.2073L16.113 12.5634C16.2352 12.7592 18.0248 16.2414 20.0898 20.3017C22.1547 24.362 23.8588 27.6839 23.8764 27.6839C23.9133 27.6839 24.5793 26.15 28.3126 17.5527C29.6599 14.45 29.776 13.9322 29.8364 13.8C31.0707 11.1 30.9715 10.3875 31.6191 11.45C32.0762 12.2 38.8436 25.9267 40.8849 30.0623L41.9063 32.1318H44.797C46.4655 32.1318 47.7103 32.0835 47.7412 32.0175C47.7841 31.9262 47.4924 30.7999 34.4308 7.6C30.2588 0.189695 30.9309 1.60001 27.8019 7.6C24.6729 13.6 23.8987 15.6994 23.8482 15.6994C23.7251 15.6994 22.5269 13.3881 19.2506 6.83085C17.7471 3.82187 16.3715 1.10942 16.1937 0.803132C16.0546 0.563445 15.705 0.573655 15.5801 0.821056L10.3942 11.0925ZM26.2683 26.6869L24.8033 29.6236L25.4539 30.8777L26.1044 32.1318H29.0111C30.9185 32.1318 31.9178 32.0886 31.9178 32.0061C31.9178 31.8711 27.9164 23.899 27.8019 23.806C27.7642 23.7754 27.074 25.0718 26.2683 26.6869Z" fill="#64FFDA"/>
<path d="M31.9906 32.0764H25.9789L24.6638 29.4818L27.6697 23.4278L31.9906 32.0764Z" fill="#00DC82"/>
</g>
<defs>
<clipPath id="clip0_12_19">
<rect width="48" height="32" fill="white"/>
</clipPath>
</defs>
</svg>
