<svg width="20" height="20" viewBox="0 0 20 20" fill="none" xmlns="http://www.w3.org/2000/svg">
<rect width="20" height="20" rx="2" fill="#0A192F"/>
<g clip-path="url(#clip0_216_5)">
<path fill-rule="evenodd" clip-rule="evenodd" d="M5.46501 8.36396L2.78801 13.658L1.93701 15.336H3.90001L4.75701 13.658L6.36101 10.518C6.77101 9.71296 7.15101 8.98396 7.20201 8.89596L7.29701 8.73596L7.37101 8.85396C7.41101 8.91996 8.00801 10.08 8.69701 11.434C9.38501 12.787 9.95301 13.894 9.95901 13.894C9.97101 13.894 10.193 13.384 11.438 10.518C11.887 9.48296 11.925 9.31096 11.945 9.26696C12.357 8.36696 12.324 8.12896 12.54 8.48296C12.692 8.73296 14.948 13.309 15.628 14.687L15.968 15.377H16.932C17.488 15.377 17.903 15.361 17.914 15.339C17.928 15.309 17.831 14.933 13.477 7.19996C12.087 4.72996 12.31 5.19996 11.267 7.19996C10.224 9.19996 9.96701 9.89996 9.94901 9.89996C9.90901 9.89996 9.50901 9.12996 8.41701 6.94396C8.08428 6.27029 7.74426 5.60026 7.39701 4.93396C7.38653 4.91586 7.37135 4.90094 7.35308 4.89076C7.33481 4.88058 7.31413 4.87553 7.29322 4.87615C7.27232 4.87676 7.25197 4.88302 7.23433 4.89425C7.21669 4.90548 7.20241 4.92128 7.19301 4.93996L5.46501 8.36396ZM10.756 13.562L10.268 14.542L10.485 14.959L10.701 15.377H11.671C12.306 15.377 12.639 15.363 12.639 15.335C12.639 15.29 11.305 12.633 11.267 12.602C11.255 12.592 11.025 13.024 10.757 13.562H10.756Z" fill="#64FFDA"/>
<path d="M12.664 15.359H10.66L10.221 14.494L11.223 12.476L12.663 15.359H12.664Z" fill="#ACFAE7"/>
</g>
<defs>
<clipPath id="clip0_216_5">
<rect width="16" height="16" fill="white" transform="translate(2 2)"/>
</clipPath>
</defs>
</svg>
