<svg width="16" height="16" fill="none" xmlns="http://www.w3.org/2000/svg">
  <path fill-rule="evenodd" clip-rule="evenodd"
    d="M3.465 6.364L.788 11.658l-.851 1.678H1.9l.857-1.678 1.604-3.14c.41-.805.79-1.534.841-1.622l.095-.16.074.118c.04.066.637 1.226 1.326 2.58.688 1.353 1.256 2.46 1.262 2.46.012 0 .234-.51 1.479-3.376.449-1.035.487-1.207.507-1.251.412-.9.379-1.138.595-.784.152.25 2.408 4.826 3.088 6.204l.34.69h.964c.556 0 .971-.016.982-.038.014-.03-.083-.406-4.437-8.139-1.39-2.47-1.167-2-2.21 0s-1.3 2.7-1.318 2.7c-.04 0-.44-.77-1.532-2.956a104.02 104.02 0 00-1.02-2.01.116.116 0 00-.204.006L3.465 6.364zm5.291 5.198l-.488.98.217.417.216.418h.97c.635 0 .968-.014.968-.042 0-.045-1.334-2.702-1.372-2.733-.012-.01-.242.422-.51.96z"
    fill="#64FFDA" />
  <path d="M10.664 13.359H8.66l-.439-.865 1.002-2.018 1.44 2.883z" fill="#ACFAE7" />
</svg>