<svg width="224" height="240" fill="none" xmlns="http://www.w3.org/2000/svg">
  <path
    d="M97.05 77.002a11.077 11.077 0 00-5.057-8.231 11.05 11.05 0 00-9.59-1.118l.802.081a14.65 14.65 0 00-8.955 5.727 12.706 12.706 0 00-2.01 10.356c.909 3.515 3.591 6.564 7.024 7.734 1.91.65 3.959.73 5.974.799 1.309.044 2.641.084 3.902-.267a8.198 8.198 0 004.082-2.848 16.77 16.77 0 002.415-4.426c.977-2.484 1.68-5.15 1.414-7.807z"
    fill="#2F2E41" />
  <path
    d="M125.557 238.925c-2.851-10.731 3.479-21.191 10.876-28.432 3.942-3.859 8.332-7.214 12.613-10.679a134.75 134.75 0 0011.716-10.562c7.137-7.312 13.362-15.668 17.485-25.061 3.92-8.933 5.774-18.663 4.856-28.409-.871-9.244-4.181-18.337-10.27-25.429a38.034 38.034 0 00-2.394-2.541c-.449-.436-1.137.251-.688.688 6.8 6.609 10.757 15.565 12.096 24.882 1.382 9.609-.042 19.404-3.631 28.387-3.824 9.57-9.904 18.109-16.955 25.561a125.045 125.045 0 01-11.312 10.497c-4.253 3.507-8.672 6.821-12.722 10.569-7.464 6.907-14.173 16.409-13.251 27.104a21.49 21.49 0 00.643 3.684.491.491 0 00.594.324.488.488 0 00.344-.583z"
    fill="#F0F0F0" />
  <path
    d="M155.407 177.832a99.582 99.582 0 01-10.213-24.613 101.56 101.56 0 01-3.412-26.437c.033-8.923 1.115-18.07 3.879-26.58 2.622-8.076 7.322-15.778 14.783-20.185a24.129 24.129 0 0112.559-3.32c4.659.044 9.253 1.271 13.451 3.259 4.111 1.947 7.87 4.57 11.343 7.494a83.39 83.39 0 019.241 9.084c5.628 6.479 10.226 13.98 12.795 22.204 2.676 8.572 3.145 17.948.661 26.623-2.386 8.332-7.612 15.434-14.028 21.139-6.935 6.165-15.149 10.645-23.431 14.712-2.073 1.018-4.158 2.012-6.242 3.007-.564.269-.072 1.108.491.84 8.734-4.167 17.554-8.37 25.339-14.187 6.87-5.133 12.993-11.576 16.636-19.425 3.852-8.3 4.641-17.738 3.045-26.693-1.561-8.752-5.476-16.943-10.715-24.077a78.726 78.726 0 00-8.65-9.882 71.523 71.523 0 00-10.549-8.607c-7.751-5.071-17.445-8.134-26.631-5.522-8.167 2.323-14.453 8.873-18.193 16.296-2.093 4.155-3.504 8.624-4.508 13.158a95.89 95.89 0 00-1.97 13.563 102.204 102.204 0 0010.323 52.794 97.06 97.06 0 003.157 5.846.487.487 0 00.839-.491z"
    fill="#F0F0F0" />
  <path
    d="M149.25 168.424a99.546 99.546 0 01-10.214-24.613 101.6 101.6 0 01-3.412-26.436c.033-8.924 1.115-18.07 3.879-26.58 2.623-8.077 7.322-15.779 14.783-20.186a24.131 24.131 0 0112.56-3.32c4.658.044 9.253 1.272 13.45 3.26 4.111 1.946 7.871 4.57 11.343 7.493a83.495 83.495 0 019.242 9.084c5.628 6.479 10.226 13.98 12.794 22.205 2.676 8.571 3.145 17.947.661 26.622-2.385 8.332-7.612 15.434-14.028 21.139-6.934 6.165-15.148 10.646-23.431 14.712-2.073 1.018-4.157 2.012-6.242 3.007-.564.269-.071 1.108.491.84 8.734-4.167 17.554-8.37 25.339-14.187 6.87-5.133 12.993-11.576 16.636-19.425 3.852-8.3 4.642-17.738 3.045-26.693-1.561-8.752-5.475-16.943-10.714-24.077a78.817 78.817 0 00-8.65-9.882 71.615 71.615 0 00-10.549-8.606c-7.752-5.072-17.446-8.135-26.632-5.522-8.167 2.322-14.453 8.872-18.193 16.296-2.093 4.154-3.504 8.623-4.508 13.157a96.038 96.038 0 00-1.97 13.563 102.208 102.208 0 0010.323 52.795 97.909 97.909 0 003.157 5.845.489.489 0 00.657.16.484.484 0 00.183-.651z"
    fill="#F0F0F0" />
  <path
    d="M60.742 150.185a4.058 4.058 0 01.19-4.943 4.05 4.05 0 011.39-1.077l11.238-35.223 7.827 4.07-13.508 33.343a4.087 4.087 0 01-1.868 5.088 4.073 4.073 0 01-5.268-1.258z"
    fill="#FFB6B6" />
  <path
    d="M69.924 113.813a1.819 1.819 0 01.008-1.516l3.85-8.283a5.043 5.043 0 016.263-3.415 5.05 5.05 0 013.006 2.419 5.06 5.06 0 01.423 3.839l-1.287 9.075a1.82 1.82 0 01-2.316 1.489l-8.806-2.611a1.814 1.814 0 01-1.141-.997z"
    fill="#2F2E41" />
  <path
    d="M102.389 115.211c-2.674 7.01-1.991 14.363 1.303 21.983H80.358c.938-5.422.557-10.46-2.917-14.599l24.948-7.384z"
    fill="#FFB6B6" />
  <path
    d="M75.08 102.328l6.906-5.027 11.3-3.142 9.417 1.885.554 5.209a62.935 62.935 0 01-.868 18.985l-24.483 5.656-2.512-4.399s-5.65-5.656-1.255-11.94l.942-7.227z"
    fill="#2F2E41" />
  <path
    d="M135.06 67.164a4.074 4.074 0 01-.594 3.383 4.052 4.052 0 01-2.972 1.716l-22.733 29.144-5.933-6.532 24.211-26.593a4.083 4.083 0 013.514-4.125 4.073 4.073 0 012.824.646 4.084 4.084 0 011.683 2.36z"
    fill="#FFB6B6" />
  <path
    d="M113.859 98.1a1.826 1.826 0 01-.533 1.418l-6.478 6.436a5.046 5.046 0 01-7.057 1.032 5.055 5.055 0 01-1.05-7.061l4.347-8.066a1.814 1.814 0 011.983-.915c.256.055.496.164.706.32l7.356 5.505a1.809 1.809 0 01.726 1.33z"
    fill="#2F2E41" />
  <path d="M75.111 232.546h3.576l1.7-13.806H75.11l.001 13.806z" fill="#FFB6B6" />
  <path
    d="M73.9 230.78l5.653-.337v2.424l5.374 3.715a1.512 1.512 0 01.584 1.697 1.517 1.517 0 01-1.444 1.063h-6.73l-1.16-2.398-.452 2.398h-2.537l.712-8.562z"
    fill="#2F2E41" />
  <path d="M100.389 232.546h3.576l1.701-13.806h-5.277v13.806z" fill="#FFB6B6" />
  <path
    d="M99.178 230.78l5.653-.337v2.424l5.374 3.715a1.513 1.513 0 01.585 1.697 1.517 1.517 0 01-1.445 1.063h-6.729l-1.16-2.398-.453 2.398h-2.537l.713-8.562zM109.889 155.195v7.039l-.688 8.6s-.217 7.51-.479 13.434c-.159 3.601-.337 6.615-.493 7.004-.191.477-.146 1.778-.035 3.143.129 1.58.343 3.248.379 3.806.068 1.041-.483 5.515-.483 5.515s-.616 11.218-1.51 12.113c-.895.895 0 3.442 0 3.442-4.194 3.095-9.49-.688-9.49-.688 1.17-1.865-.687-14.598-.687-14.598s-.272-4.347-.823-5.515c-.55-1.168-.69-8.464-.69-8.464V179.22s-1.445-2.212-1.65-3.244c-.204-1.031 0-4.678 0-4.678l-1.51-5.093-1.034 3.99s-2.676 11.15-3.16 12.526c-.482 1.375.273 2.754.273 2.754s.69 2.121 0 3.095a6.954 6.954 0 00-.972 1.998s-.354 4.062-.972 5.515c-.62 1.453-1.167 3.244-1.167 3.244s.146 2.744-.473 3.364c-.62.62-.824 3.718-.824 3.718s.136 3.507-.69 4.746c-.826 1.239-.826 8.259-.826 8.259a9.604 9.604 0 01-9.684.412s.817-.765.198-4.334c-.62-3.568.444-13.284.444-13.284s-.136-2.466.55-3.569c.688-1.103-.346-3.234-.07-4.198.275-.963 1.101-6.196 1.101-6.196s-.343-12.869-.343-13.557a8.996 8.996 0 00-.972-3.51c-.62-1.099 0-9.083 0-9.083s1.458-4.127.972-5.022c-.486-.895.324-2.478.324-2.478s-.755-1.859 0-2.203c.755-.344.894-1.719.894-1.719l.525-6.677s.198-3.03.827-3.166c.629-.136.353-1.304.972-2.131.302-.559.51-1.164.616-1.791a42.304 42.304 0 00.551-3.098c4.057 3.374 25.391 1.009 25.414 1.009 1.355.295 2.965 5.002 4.129 9.106a41.445 41.445 0 011.556 11.27z"
    fill="#2F2E41" />
  <path
    d="M94.37 85.3c1.556-5.12-1.33-10.533-6.446-12.09-5.116-1.556-10.523 1.333-12.078 6.454-1.555 5.12 1.331 10.533 6.447 12.09C87.408 93.31 92.815 90.42 94.37 85.3z"
    fill="#FFB6B6" />
  <path
    d="M74.166 84.171l3.749-.78.69-4.98 1.294 4.566 1.792-.373.403-2.905.755 2.663 13.313-2.772a10.263 10.263 0 00-4.415-6.49 10.241 10.241 0 00-7.706-1.464l-1.93.402a10.248 10.248 0 00-6.483 4.42 10.267 10.267 0 00-1.462 7.713z"
    fill="#2F2E41" />
  <path
    d="M112.516 11.305l-.024.048a20.944 20.944 0 00-15.551-.798 20.97 20.97 0 00-11.81 10.158 21.003 21.003 0 00-1.554 15.509 20.981 20.981 0 009.56 12.303l-.024.047 37.23 19.423 19.403-37.267a21.037 21.037 0 001.421-16.028 21 21 0 00-10.324-12.334A20.984 20.984 0 00124.829.958a21.012 21.012 0 00-12.313 10.347z"
    fill="#96AFD2" />
  <path
    d="M145.686 225.155l-.007.012a5.294 5.294 0 00-6.915 2.366 5.302 5.302 0 002.024 7.029l-.006.012 9.409 4.909 4.904-9.419a5.318 5.318 0 00-.635-5.87 5.308 5.308 0 00-3.603-1.88 5.294 5.294 0 00-3.875 1.223 5.308 5.308 0 00-1.296 1.618z"
    fill="#FF6584" />
  <path
    d="M20.86 105.724v.053a20.95 20.95 0 00-14.158 6.487 20.996 20.996 0 000 28.944 20.955 20.955 0 0014.159 6.487v.053h41.982v-42.025a21.029 21.029 0 00-6.14-14.87 20.989 20.989 0 00-14.851-6.162 20.972 20.972 0 00-14.85 6.161 21.013 21.013 0 00-6.141 14.871v.001z"
    fill="#96AFD2" />
  <path d="M216.516 240H6.74a.387.387 0 01-.386-.386.384.384 0 01.386-.387h209.776a.386.386 0 010 .773z"
    fill="#CACACA" />
  <path
    d="M183.117 145.425a18.516 18.516 0 0011.731-4.287 18.002 18.002 0 006.211-11.123 18.39 18.39 0 00-.359-7.367.485.485 0 00-.883-.102.485.485 0 00-.055.361 17.524 17.524 0 01-1.32 12.176 17.29 17.29 0 01-15.325 9.369.486.486 0 000 .973z"
    fill="#F0F0F0" />
  <path
    d="M108.044 19.017c-2.766-2.628-7.134-2.621-10.329-.791-3.585 2.053-5.21 6.296-5.128 10.28.092 4.484 2.283 8.544 5.11 11.907a47.407 47.407 0 0010.412 9.008 52.273 52.273 0 0014.117 6.452.488.488 0 00.259-.938 51.025 51.025 0 01-22.329-13.262c-2.94-3.014-5.554-6.638-6.357-10.854-.71-3.724.074-8.048 2.958-10.701 2.803-2.579 7.709-3.16 10.599-.412.454.43 1.143-.256.688-.689zM20.142 115.961c-3.737-.465-7.246 2.165-8.701 5.488-1.632 3.727-.532 8.022 1.835 11.171 2.608 3.469 6.557 5.491 10.685 6.564 4.43 1.152 9.135 1.463 13.696 1.25a52.344 52.344 0 0015.775-3.21c.582-.216.33-1.157-.258-.938-8.427 3.132-17.807 4.12-26.668 2.466-3.96-.739-7.995-2.149-10.946-5.001-2.675-2.585-4.567-6.5-3.762-10.28.8-3.756 4.368-7.032 8.344-6.537.62.077.614-.897 0-.973z"
    fill="#fff" />
  <path
    d="M82.307 68.29c.903-3.617-.847-7.496-3.557-10.052-2.71-2.557-6.247-4.026-9.748-5.298-2.791-1.015-6.061-1.897-8.588-.335-2.03 1.256-2.91 3.695-4.071 5.782a18.935 18.935 0 01-10.051 8.585 18.912 18.912 0 01-13.213-.087c1.498 4.354 6.659 6.483 11.25 6.188 4.59-.296 8.831-2.412 13.108-4.11 4.277-1.697 9.034-3.008 13.43-1.649 1.855.574 3.542 1.598 5.379 2.228 1.837.63 3.986.817 5.623-.228"
    fill="#2F2E41" />
  <path
    d="M146.608 200.74l-3.129-5.514a.49.49 0 00-.657-.16.486.486 0 00-.183.651l3.13 5.514a.485.485 0 00.88-.128.488.488 0 00-.041-.363z"
    fill="#F0F0F0" />
</svg>