<svg width="320" height="240" fill="none" xmlns="http://www.w3.org/2000/svg">
  <path
    d="M184.407 11.68c2.744 5.804-3.072 7.448-9.734 10.559-6.663 3.11-11.649 6.51-14.394.706-2.745-5.803-4.972-17.322 4.454-21.722 9.75-4.553 16.929 4.654 19.674 10.458z"
    fill="#2F2E41" />
  <path
    d="M170.813 23.094c4.954 0 8.969-3.99 8.969-8.911 0-4.922-4.015-8.912-8.969-8.912s-8.969 3.99-8.969 8.912c0 4.921 4.015 8.911 8.969 8.911z"
    fill="#FFB8B8" />
  <path
    d="M215.249 53.703a55.807 55.807 0 00-2.158-2.638c-4.649-5.33-9.594-8.686-15.039-9.045h-.007l-.08-.008-10.85 10.508-3.688 3.57.08.196 1.99 4.924h34.872a85.444 85.444 0 00-5.12-7.507zM161.06 17.77l3.21-1.499-.447-4.602 2.147 3.809 1.535-.717-.261-2.684 1.252 2.221 11.403-5.323a9.475 9.475 0 00-5.372-4.862 9.554 9.554 0 00-7.26.336l-1.652.771a9.46 9.46 0 00-4.894 5.338 9.379 9.379 0 00.339 7.212z"
    fill="#2F2E41" />
  <path
    d="M235.37 179.527H48.09a6.05 6.05 0 01-4.259-1.756 5.973 5.973 0 01-1.767-4.231V61.734a4.376 4.376 0 011.295-3.1 4.434 4.434 0 013.12-1.286h190.426a4.51 4.51 0 013.174 1.308 4.455 4.455 0 011.317 3.154v111.73a5.977 5.977 0 01-1.767 4.231 6.051 6.051 0 01-4.259 1.756z"
    fill="#F2F2F2" />
  <path
    d="M53.933 173.54h175.595a5.865 5.865 0 004.131-1.7 5.788 5.788 0 001.712-4.105V72.838c0-1.54-.616-3.016-1.712-4.105a5.862 5.862 0 00-4.131-1.7H53.933c-1.55 0-3.036.612-4.131 1.7a5.786 5.786 0 00-1.712 4.105v94.897c0 1.539.616 3.016 1.712 4.105a5.865 5.865 0 004.131 1.7z"
    fill="#fff" />
  <path
    d="M241.312 61.391H41.98v-3.048a5.994 5.994 0 011.774-4.244 6.073 6.073 0 014.273-1.76h187.237a6.074 6.074 0 014.274 1.76 5.991 5.991 0 011.774 4.244v3.048z"
    fill="#8892B0" />
  <path
    d="M52.97 58.428a1.56 1.56 0 001.565-1.554c0-.858-.7-1.554-1.564-1.554a1.56 1.56 0 00-1.565 1.554c0 .858.7 1.554 1.565 1.554zM58.908 58.428a1.56 1.56 0 001.564-1.554c0-.858-.7-1.554-1.564-1.554a1.56 1.56 0 00-1.564 1.554c0 .858.7 1.554 1.564 1.554zM64.846 58.428a1.56 1.56 0 001.564-1.554c0-.858-.7-1.554-1.564-1.554a1.56 1.56 0 00-1.565 1.554c0 .858.7 1.554 1.565 1.554z"
    fill="#fff" />
  <path
    d="M147.209 152.96h-15.703a3.484 3.484 0 01-2.452-1.011 3.44 3.44 0 01-1.017-2.436v-15.601a3.44 3.44 0 011.017-2.436 3.484 3.484 0 012.452-1.011h15.703a3.48 3.48 0 012.452 1.011 3.436 3.436 0 011.017 2.436v15.601a3.436 3.436 0 01-1.017 2.436 3.48 3.48 0 01-2.452 1.011zm-15.703-21.769c-.726 0-1.422.287-1.935.797a2.717 2.717 0 00-.804 1.924v15.601c.001.722.29 1.413.804 1.924a2.75 2.75 0 001.935.798h15.703a2.752 2.752 0 001.936-.798 2.72 2.72 0 00.803-1.924v-15.601a2.72 2.72 0 00-.803-1.924 2.747 2.747 0 00-1.936-.797h-15.703z"
    fill="#CCC" />
  <path
    d="M144.105 148.606h-9.495c-.29 0-.569-.115-.774-.319a1.082 1.082 0 01-.321-.769v-11.611c0-.288.115-.565.321-.769.205-.204.484-.319.774-.319h6.88c.25 0 .492.085.686.24l2.615 2.088a1.083 1.083 0 01.41.848v9.523a1.099 1.099 0 01-1.096 1.088zm-9.495-13.061a.366.366 0 00-.365.362v11.611a.363.363 0 00.365.363h9.495a.37.37 0 00.258-.107.359.359 0 00.107-.256v-9.523a.357.357 0 00-.136-.283l-2.615-2.088a.372.372 0 00-.229-.079h-6.88z"
    fill="#CCC" />
  <path
    d="M142.279 139.898h-5.843a.363.363 0 110-.725h5.843a.363.363 0 01.259.619.369.369 0 01-.259.106zM142.279 142.075h-5.843a.363.363 0 110-.725h5.843a.363.363 0 01.259.619.369.369 0 01-.259.106zM142.279 144.252h-5.843a.363.363 0 01-.258-.619.368.368 0 01.258-.106h5.843a.363.363 0 110 .725zM184.458 152.96h-15.703a3.48 3.48 0 01-2.452-1.011 3.44 3.44 0 01-1.017-2.436v-15.601a3.44 3.44 0 011.017-2.436 3.48 3.48 0 012.452-1.011h15.703c.92.001 1.801.364 2.452 1.011a3.44 3.44 0 011.017 2.436v15.601a3.44 3.44 0 01-1.017 2.436 3.482 3.482 0 01-2.452 1.011zm-15.703-21.769c-.726 0-1.422.287-1.936.797a2.72 2.72 0 00-.803 1.924v15.601a2.72 2.72 0 00.803 1.924c.514.51 1.21.797 1.936.798h15.703a2.754 2.754 0 001.936-.798 2.72 2.72 0 00.803-1.924v-15.601a2.72 2.72 0 00-.803-1.924 2.749 2.749 0 00-1.936-.797h-15.703z"
    fill="#CCC" />
  <path
    d="M181.719 145.704h-10.225a1.1 1.1 0 01-1.096-1.089v-5.805c.001-.289.116-.565.322-.769.205-.204.484-.319.774-.32h10.225c.291.001.569.116.774.32.206.204.321.48.322.769v5.805a1.098 1.098 0 01-1.096 1.089zm-10.225-7.257a.365.365 0 00-.365.363v5.805a.36.36 0 00.365.363h10.225a.365.365 0 00.365-.363v-5.805a.36.36 0 00-.365-.363h-10.225z"
    fill="#CCC" />
  <path
    d="M176.607 142.67c-.206 0-.407-.057-.581-.164l-5.456-3.388a.366.366 0 01-.162-.226.365.365 0 01.274-.435.364.364 0 01.275.045l5.456 3.388a.367.367 0 00.387 0l5.456-3.388a.364.364 0 01.275-.045.362.362 0 01.112.661l-5.456 3.388a1.108 1.108 0 01-.58.164zM109.961 152.96H94.258a3.48 3.48 0 01-2.452-1.011 3.438 3.438 0 01-1.017-2.436v-15.601a3.438 3.438 0 011.017-2.436 3.48 3.48 0 012.452-1.011h15.703a3.484 3.484 0 012.452 1.011 3.44 3.44 0 011.017 2.436v15.601a3.44 3.44 0 01-1.017 2.436 3.484 3.484 0 01-2.452 1.011zm-15.703-21.769c-.726 0-1.422.287-1.936.797a2.718 2.718 0 00-.803 1.924v15.601c0 .722.29 1.413.803 1.924.513.51 1.21.797 1.936.798h15.703a2.754 2.754 0 001.936-.798 2.72 2.72 0 00.803-1.924v-15.601a2.72 2.72 0 00-.803-1.924 2.749 2.749 0 00-1.936-.797H94.258z"
    fill="#CCC" />
  <path
    d="M107.222 145.704H96.996a1.1 1.1 0 01-.774-.32 1.084 1.084 0 01-.321-.769v-5.805c0-.289.116-.565.321-.769.206-.204.484-.319.774-.32h10.226c.29.001.569.116.774.32.205.204.321.48.321.769v5.805c0 .289-.116.565-.321.769a1.1 1.1 0 01-.774.32zm-10.226-7.257a.366.366 0 00-.365.363v5.805a.364.364 0 00.365.363h10.226a.365.365 0 00.365-.363v-5.805a.365.365 0 00-.365-.363H96.996z"
    fill="#CCC" />
  <path
    d="M105.601 145.704h-7.35a.732.732 0 01-.73-.726c0-.127.034-.253.098-.363l2.214-3.81a.733.733 0 011.265 0l1.43 2.461.828-1.426a.73.73 0 01.998-.265.73.73 0 01.267.265l1.613 2.775a.723.723 0 01-.268.991.731.731 0 01-.365.098zm0-.726l-1.612-2.775-1.145 1.97a.364.364 0 01-.316.181.368.368 0 01-.183-.048.369.369 0 01-.133-.133l-1.746-3.005-2.214 3.81h7.349zM106.126 140.624c.403 0 .73-.325.73-.726 0-.4-.327-.725-.73-.725a.728.728 0 00-.73.725c0 .401.327.726.73.726z"
    fill="#CCC" />
  <path d="M280.762 235.166h-4.477l-2.13-17.158 6.608.001-.001 17.157z" fill="#FFB8B8" />
  <path
    d="M281.904 239.478l-14.436-.001v-.181a5.556 5.556 0 011.646-3.948 5.634 5.634 0 013.973-1.635h.001l8.816.001v5.764z"
    fill="#2F2E41" />
  <path d="M299.021 235.166h-4.477l-2.129-17.158 6.607.001-.001 17.157z" fill="#FFB8B8" />
  <path
    d="M300.163 239.478l-14.436-.001v-.181a5.573 5.573 0 011.646-3.948 5.634 5.634 0 013.973-1.635l8.817.001v5.764zM297.679 227.728l-4.146-1.253a1.64 1.64 0 01-1.156-1.391l-3.866-36.401a.174.174 0 00-.175-.162.17.17 0 00-.123.037.166.166 0 00-.063.112l-6.475 35.266a1.628 1.628 0 01-.698 1.06 1.652 1.652 0 01-1.25.246l-5.3-1.085a1.647 1.647 0 01-.975-.612 1.635 1.635 0 01-.333-1.097l3.939-57.803 26.709-2.863-3.969 64.484a1.63 1.63 0 01-.514 1.088 1.655 1.655 0 01-1.605.374z"
    fill="#2F2E41" />
  <path
    d="M297.654 114.308c4.953 0 8.969-3.99 8.969-8.912 0-4.921-4.016-8.911-8.969-8.911-4.954 0-8.969 3.99-8.969 8.911 0 4.922 4.015 8.912 8.969 8.912z"
    fill="#FFB8B8" />
  <path
    d="M277.017 164.984l5.791-36.228a13.69 13.69 0 012.104-5.395 13.787 13.787 0 014.153-4.055 13.903 13.903 0 0111.274-1.58 13.775 13.775 0 017.911 5.982 13.622 13.622 0 011.803 9.715l-6.059 32.354-26.977-.793z"
    fill="#8892B0" />
  <path
    d="M300.13 171.467a3.643 3.643 0 001.459-4.204 3.652 3.652 0 00-.821-1.355l5.988-11.52-6.743.715-4.652 10.83a3.657 3.657 0 00-.977 2.419c-.016.898.3 1.771.888 2.453a3.696 3.696 0 002.302 1.248 3.714 3.714 0 002.556-.586z"
    fill="#FFB8B8" />
  <path
    d="M301.412 163.876a1.65 1.65 0 01-.886-.417l-2.291-2.104a1.628 1.628 0 01-.399-1.833l4.579-10.783-.65-21.305a5.25 5.25 0 012.041-3.48 5.313 5.313 0 017.422 1.006 5.239 5.239 0 011.028 3.896l1.11 13.393a16.744 16.744 0 01-3.264 11.391l-7.14 9.59a1.633 1.633 0 01-1.166.655 1.644 1.644 0 01-.384-.009z"
    fill="#8892B0" />
  <path
    d="M246.003 100.541a3.646 3.646 0 001.805 2.513 3.696 3.696 0 003.098.238l8.343 9.97 1.966-6.448-8.224-8.48a3.68 3.68 0 00-1.861-1.835 3.714 3.714 0 00-2.619-.145 3.686 3.686 0 00-2.055 1.62 3.645 3.645 0 00-.453 2.567z"
    fill="#FFB8B8" />
  <path
    d="M252.538 104.674c.172-.285.428-.511.732-.648l2.843-1.276a1.65 1.65 0 011.855.35l8.209 8.393 19.999 7.712a5.243 5.243 0 012.541 5.276 5.236 5.236 0 01-2.071 3.463 5.338 5.338 0 01-3.929.992 5.327 5.327 0 01-1.949-.687l-12.846-4.206a16.91 16.91 0 01-9.285-7.427l-6.105-10.272a1.63 1.63 0 01-.152-1.323c.039-.121.092-.238.158-.347z"
    fill="#8892B0" />
  <path opacity=".1" d="M304.929 136.297l-.365 11.61-6.728 11.614 5.618-12.943 1.475-10.281z" fill="#000" />
  <path
    d="M296.626 107.071a2.354 2.354 0 01-1.606-.374 2.33 2.33 0 01-.961-1.332 3.537 3.537 0 00-.901-1.669 3.573 3.573 0 00-1.637-.97c-1.646-.374-3.657.396-4.862-.843a2.398 2.398 0 01-.576-2.12c.223-1.203 1.089-2.112 2.032-2.84a12.49 12.49 0 016.89-2.558 24.885 24.885 0 013.878.192c1.347.085 2.678.326 3.967.72a9.337 9.337 0 013.796 2.646 9.25 9.25 0 012.048 4.132 10.675 10.675 0 01-2.212 8.755 11.574 11.574 0 01-4.441 3.36 1.747 1.747 0 01-1.317.066c-1.08-.427-.903-1.756-.411-2.642.527-.949 1.338-1.868.914-3.022a2.285 2.285 0 00-1.142-1.221c-1.073-.544-2.274-.416-3.428-.283l-.031.003z"
    fill="#2F2E41" />
  <path
    d="M243.005 112.104H131.989a6.053 6.053 0 01-4.258-1.756 5.973 5.973 0 01-1.767-4.231V82.533a5.973 5.973 0 011.767-4.231 6.05 6.05 0 014.258-1.756h111.016a6.053 6.053 0 014.259 1.756 5.977 5.977 0 011.767 4.231v23.584a5.977 5.977 0 01-1.767 4.231 6.056 6.056 0 01-4.259 1.756z"
    fill="#fff" />
  <path
    d="M243.005 112.285H131.989a6.23 6.23 0 01-4.387-1.809 6.154 6.154 0 01-1.821-4.359V82.533a6.155 6.155 0 011.821-4.36 6.232 6.232 0 014.387-1.808h111.016a6.236 6.236 0 014.388 1.809 6.154 6.154 0 011.82 4.36v23.583a6.153 6.153 0 01-1.82 4.359 6.235 6.235 0 01-4.388 1.809zM131.989 77.091a5.502 5.502 0 00-3.871 1.596 5.428 5.428 0 00-1.606 3.846v23.584a5.426 5.426 0 001.606 3.846 5.496 5.496 0 003.871 1.596h111.016a5.498 5.498 0 003.872-1.596 5.43 5.43 0 001.606-3.846V82.533a5.432 5.432 0 00-1.606-3.846 5.504 5.504 0 00-3.872-1.596H131.989z"
    fill="#3F3D56" />
  <path
    d="M229.493 106.298h-83.992a6.052 6.052 0 01-4.259-1.755 5.972 5.972 0 01-1.766-4.231V87.976a5.972 5.972 0 011.766-4.232 6.054 6.054 0 014.259-1.755h83.992a6.052 6.052 0 014.259 1.755 5.973 5.973 0 011.767 4.232v12.336a5.973 5.973 0 01-1.767 4.231 6.05 6.05 0 01-4.259 1.755z"
    fill="#F2F2F2" />
  <path
    d="M163.576 99.65c3.98 0 7.206-3.206 7.206-7.16s-3.226-7.16-7.206-7.16c-3.98 0-7.206 3.206-7.206 7.16s3.226 7.16 7.206 7.16z"
    fill="#FF6584" />
  <path
    d="M224.274 105.576L214.103 97.1l-9.996-8.329a1.466 1.466 0 00-1.882.004l-9.963 8.367-2.434 2.044-3.669-3.058-11.152-9.292a1.466 1.466 0 00-1.881.004l-11.116 9.335-11.29 9.482a.361.361 0 00.027.574.355.355 0 00.209.065l23.148-.044 7.327-.014-.072.06 21.841-.041 20.84-.04a.363.363 0 00.234-.641z"
    fill="#3F3D56" />
  <path
    d="M319.635 240h-70.116a.365.365 0 01-.365-.363.363.363 0 01.365-.363h70.116a.367.367 0 01.365.363.365.365 0 01-.365.363z"
    fill="#CCC" />
  <path
    d="M220.591 47.861a4.112 4.112 0 00-2.647-1.85 3.795 3.795 0 00-.606-.076l-27.824-24.716a3.298 3.298 0 00-2.056-.976 2.83 2.83 0 00-.464-.015 3.32 3.32 0 00-1.782.617c-.522.373-.922.89-1.153 1.485a3.27 3.27 0 00.759 3.515l10.652 9.227 17.493 15.148c.014.285.057.568.127.845.21.802.66 1.522 1.29 2.065a4.131 4.131 0 002.242.972 4.072 4.072 0 002.209-.363 4.16 4.16 0 001.417-1.078c.04-.047.077-.09.113-.141a4.079 4.079 0 00.23-4.659zM173.001 71.68l-.26-10.47-.219-8.69-.15-6.081-.295-11.853a3.276 3.276 0 00-.7-1.739 3.31 3.31 0 00-3.426-1.137 3.301 3.301 0 00-1.611.97 2.419 2.419 0 00-.274.349c-.45.64-.652 1.42-.57 2.195l.65 17.296.325 8.69.416 11.084c-.12.163-.228.334-.325.512a4.063 4.063 0 00-.259 3.207 4.105 4.105 0 002.297 2.47 4.154 4.154 0 003.385-.064 4.096 4.096 0 002.318-3.1 4.08 4.08 0 00-1.302-3.638z"
    fill="#FFB8B8" />
  <path
    d="M198.052 42.02l-2.582-6.948-4.177-11.255a5.812 5.812 0 00-1.414-2.168 5.854 5.854 0 00-2.421-1.406 5.874 5.874 0 00-4.835.66l-14.07 8.868a5.839 5.839 0 00-2.569 3.559 5.809 5.809 0 00.644 4.332 100.345 100.345 0 005.744 8.777c1.64 2.217 4.693 2.453 5.223 6.081h10.374l10.503-9.368-.42-1.132z"
    fill="#CCC" />
  <path
    d="M36.944 126.936c4.673 0 8.462-3.764 8.462-8.407 0-4.643-3.789-8.407-8.462-8.407-4.674 0-8.462 3.764-8.462 8.407 0 4.643 3.788 8.407 8.462 8.407zM57.718 112.742a3.757 3.757 0 011.433 3.052 3.756 3.756 0 01-1.64 2.998l.572 19.21a2.91 2.91 0 01-.536 1.76 2.943 2.943 0 01-1.489 1.094l-.035.008-15.698 1.661a3.282 3.282 0 01-2.397-.708 3.24 3.24 0 01-1.181-2.19 3.212 3.212 0 01.734-2.375 3.247 3.247 0 012.215-1.154l11.19-.979 1.936-16.636a3.643 3.643 0 01-.355-.359 3.752 3.752 0 01.174-5.052 3.809 3.809 0 015.077-.33zM50.88 235.538h4.224l2.01-16.187h-6.235l.001 16.187z"
    fill="#A0616A" />
  <path d="M49.803 234.168l8.318-.001a5.325 5.325 0 013.75 1.543 5.26 5.26 0 011.552 3.724v.171l-13.62.001v-5.438z"
    fill="#2F2E41" />
  <path d="M8.898 229.735l3.63 2.147 10.061-12.886-5.356-3.169-8.335 13.908z" fill="#A0616A" />
  <path
    d="M8.678 228.011l7.147 4.228a5.26 5.26 0 012.426 3.23 5.235 5.235 0 01-.583 3.99l-.088.147-11.702-6.923 2.8-4.672zM56.1 229.82h-4.729a1.548 1.548 0 01-1.037-.394 1.534 1.534 0 01-.505-.983l-4.768-44.532a.517.517 0 00-.985-.158l-8.602 18.925-15.23 24.673a1.559 1.559 0 01-1.945.605l-6.084-2.66a1.543 1.543 0 01-.916-1.587 1.53 1.53 0 01.21-.613l14-23.291 4.293-19.623c-1.35-8.51 4.439-21.163 4.498-21.29l.028-.061 15.947-6.193.08.097c6.289 20.505 10.12 42.571 7.291 75.674a1.544 1.544 0 01-.498 1.002 1.565 1.565 0 01-1.047.409z"
    fill="#2F2E41" />
  <path
    d="M33.685 160.904l-.074-.155c-.035-.074-3.581-7.505-6.314-15.446a11.644 11.644 0 01.817-9.388 11.868 11.868 0 013.187-3.696 11.954 11.954 0 014.413-2.11c2.782-.663 5.711-.31 8.254.993a11.881 11.881 0 015.597 6.107c2.168 5.387 1.477 11.137.827 15.659l-.013.09-.083.04-16.61 7.906z"
    fill="#3F3D56" />
  <path
    d="M47.204 113.78H33.767v-5.819c2.95-1.164 5.835-2.154 7.58 0 1.553 0 3.043.613 4.141 1.704a5.803 5.803 0 011.716 4.115z"
    fill="#2F2E41" />
  <path
    d="M33.023 106.934c-8.033 0-10.28 10.003-10.28 15.647 0 3.147 1.432 4.273 3.683 4.654l.795-4.213 1.862 4.394c.633.003 1.297-.009 1.986-.022l.63-1.291 1.409 1.268c5.639.009 10.196.825 10.196-4.79 0-5.644-1.972-15.647-10.28-15.647z"
    fill="#2F2E41" />
  <path
    d="M70.48 240H.365a.366.366 0 01-.365-.363.367.367 0 01.365-.363H70.48a.367.367 0 01.366.363.363.363 0 01-.366.363z"
    fill="#CCC" />
  <path
    d="M71.799 120.63H56.096a3.481 3.481 0 01-2.452-1.011 3.439 3.439 0 01-1.017-2.436v-15.601a3.44 3.44 0 011.017-2.436 3.484 3.484 0 012.452-1.011h15.703c.92 0 1.801.364 2.452 1.01a3.44 3.44 0 011.017 2.437v15.601a3.438 3.438 0 01-1.017 2.436 3.481 3.481 0 01-2.452 1.011z"
    fill="#fff" />
  <path
    d="M71.799 120.63H56.096a3.481 3.481 0 01-2.452-1.011 3.439 3.439 0 01-1.017-2.436v-15.601a3.44 3.44 0 011.017-2.436 3.484 3.484 0 012.452-1.011h15.703c.92 0 1.801.364 2.452 1.01a3.44 3.44 0 011.017 2.437v15.601a3.438 3.438 0 01-1.017 2.436 3.481 3.481 0 01-2.452 1.011zM56.096 98.86c-.726.001-1.423.288-1.936.798a2.715 2.715 0 00-.803 1.924v15.601c0 .722.29 1.413.803 1.923.513.511 1.21.798 1.936.798h15.703c.726 0 1.422-.287 1.935-.798.514-.51.803-1.201.803-1.923v-15.601c0-.722-.29-1.414-.803-1.924a2.751 2.751 0 00-1.935-.798H56.096z"
    fill="#3F3D56" />
  <path
    d="M69.06 114.281H58.835a1.104 1.104 0 01-.775-.32 1.084 1.084 0 01-.32-.769v-7.619c0-.289.115-.566.32-.77.206-.204.484-.318.775-.319h2.878a1.1 1.1 0 01.933.518l.803 1.296h5.61c.291.001.57.115.775.319.206.205.321.481.322.77v5.805c0 .289-.116.565-.322.769a1.105 1.105 0 01-.774.32z"
    fill="#8892B0" />
  <path
    d="M68.727 118.13a3.741 3.741 0 01.128 3.365c-.22.484-.54.915-.94 1.267-.4.351-.871.615-1.38.774a3.714 3.714 0 01-.361.09l-6.975 17.925a2.929 2.929 0 01-1.182 1.416 2.955 2.955 0 01-1.8.434l-.034-.006-15.118-4.522a3.251 3.251 0 01-1.933-1.576 3.22 3.22 0 01-.233-2.474 3.226 3.226 0 011.605-1.906 3.256 3.256 0 012.492-.209l10.696 3.412 8.281-14.587a3.538 3.538 0 01-.187-.467 3.744 3.744 0 01.177-2.703 3.776 3.776 0 011.956-1.886 3.81 3.81 0 012.725-.094c.888.305 1.63.928 2.083 1.747z"
    fill="#A0616A" />
</svg>