<svg width="48" height="32" fill="none" xmlns="http://www.w3.org/2000/svg">
  <g clip-path="url(#prefix__clip0_12_19)">
    <path fill-rule="evenodd" clip-rule="evenodd"
      d="M10.394 11.092c-3.012 5.966-6.625 13.112-8.03 15.882L-.19 32.008H5.699l2.573-5.035 4.812-9.42c1.231-2.413 2.366-4.602 2.523-4.866l.284-.48.222.356c.122.196 1.912 3.678 3.977 7.739 2.065 4.06 3.769 7.382 3.786 7.382.037 0 .703-1.534 4.437-10.131 1.347-3.103 1.463-3.62 1.523-3.753 1.235-2.7 1.136-3.413 1.783-2.35.457.75 7.225 14.477 9.266 18.612l1.021 2.07h2.891c1.669 0 2.913-.048 2.944-.114.043-.092-.249-1.218-13.31-24.418-4.172-7.41-3.5-6-6.63 0-3.128 6-3.902 8.1-3.953 8.1-.123 0-1.321-2.312-4.597-8.87-1.504-3.008-2.88-5.72-3.057-6.027a.35.35 0 00-.614.018l-5.186 10.271zm15.874 15.595l-1.465 2.937.65 1.254.651 1.254h2.907c1.908 0 2.907-.043 2.907-.126 0-.135-4.002-8.107-4.116-8.2-.038-.03-.728 1.266-1.534 2.88z"
      fill="#64FFDA" />
    <path d="M31.99 32.076H25.98l-1.315-2.594 3.006-6.054 4.32 8.648z" fill="#00DC82" />
  </g>
  <defs>
    <clipPath id="prefix__clip0_12_19">
      <path fill="#fff" d="M0 0h48v32H0z" />
    </clipPath>
  </defs>
</svg>