<svg xmlns="http://www.w3.org/2000/svg">
  <path
    d="M11.88 14.509h.052a2.075 2.075 0 012.025 2.07c0 .96-.652 1.762-1.537 2.002v.84c0 .3-.24.54-.54.54-.3 0-.54-.24-.54-.54v-.84a2.077 2.077 0 01-1.538-2.002c0-.3.24-.54.54-.54.3 0 .54.24.54.54a.99.99 0 00.99.997c.548 0 .998-.45.998-.997 0-.548-.45-.998-.997-.998h-.053a2.074 2.074 0 01-2.018-2.07c0-.96.653-1.762 1.538-2.002v-.84c0-.3.24-.54.54-.54.3 0 .54.24.54.54v.84a2.077 2.077 0 011.537 2.002c0 .3-.24.54-.54.54-.3 0-.54-.24-.54-.54 0-.547-.45-.997-.997-.997-.548 0-.998.45-.998.997 0 .548.45.998.998.998z" />
  <path
    d="M7.899 3.825l2.09 2.445-.226.252c-4.3.964-7.513 4.805-7.513 9.397a7.315 7.315 0 007.313 7.312h4.627a7.314 7.314 0 007.313-7.312c.007-4.592-3.205-8.433-7.506-9.397a.827.827 0 00-.082-.461l1.777-2.035.115-.177a1.467 1.467 0 00-2.169-1.817l-.632-.75a1.515 1.515 0 00-2.256-.004l-.662.74a1.47 1.47 0 00-2.189 1.807zm2.85 1.039l-1.273-1.47a1.484 1.484 0 001.774-.375l.6-.779.666.79a1.478 1.478 0 001.725.384l-1.266 1.45h-2.227zM3.75 15.919a8.129 8.129 0 018.13-8.13c4.491 0 8.13 3.639 8.123 8.128v.002a5.815 5.815 0 01-5.813 5.812H9.563A5.814 5.814 0 013.75 15.92z" />
</svg>