<svg width="320" height="240" fill="none" xmlns="http://www.w3.org/2000/svg">
  <path
    d="M193.087 212.487l-11.542 3.788 11.626-8.747c-.25-13.944-4.229-28.403-4.229-28.403s-24.846 8.806-31.367 24.056c-6.521 15.25-1.388 25.318 7.752 31.169 9.141 5.851 18.828 5.269 25.349-9.981 1.452-3.395 2.17-7.52 2.411-11.882z"
    fill="#F2F2F2" />
  <path
    d="M179.337 215.468l-.321.752c-3.773 8.714-7.892 14.76-12.308 18.048-.064.049-.129.093-.193.142l-.18-.366-.17-.355c4.839-3.506 8.899-10.239 12.192-17.839.108-.244.217-.491.321-.742 1.371-3.233 2.605-6.599 3.702-9.935.087-.258.172-.521.258-.784 1.429-4.412 2.621-8.74 3.577-12.55.068-.269.134-.54.197-.807 1.596-6.458 2.481-11.31 2.671-12.387.025-.131.036-.204.04-.221l.332.084.004-.001.335.086c-.003.017-.042.262-.125.711a208.765 208.765 0 01-2.596 12.032c-.066.261-.131.532-.2.801a198.547 198.547 0 01-2.774 10.031c-.27.884-.544 1.752-.822 2.602-.083.265-.168.528-.255.785-1.185 3.607-2.414 6.911-3.685 9.913z"
    fill="#fff" />
  <path
    d="M187.073 191.336a17.615 17.615 0 01-2.422-1.294c-2.443-1.559-4.57-3.769-6.223-6.467l-.64.348c1.726 2.868 3.964 5.215 6.545 6.863.612.391 1.24.743 1.882 1.053.218.106.439.205.659.298a15.906 15.906 0 005.62 1.308c-.044-.288-.085-.571-.126-.848a15.454 15.454 0 01-5.295-1.261zM183.277 204.77a10.975 10.975 0 01-.639-.381c-.066-.037-.133-.08-.196-.12-2.646-1.694-4.918-4.145-6.622-7.145-1.705-3-2.791-6.459-3.166-10.083a32.83 32.83 0 00-.645.43c.426 3.697 1.565 7.216 3.324 10.267 1.759 3.05 4.087 5.544 6.79 7.275.085.054.171.109.257.16.215.132.428.259.643.382 3.334 1.875 7.04 2.536 10.673 1.903-.004-.282-.007-.564-.014-.848-3.541.639-7.157-.001-10.405-1.84z"
    fill="#fff" />
  <path
    d="M179.338 215.468a18.207 18.207 0 01-1.352-.78c-3.553-2.28-6.407-5.908-8.134-10.339-1.727-4.431-2.235-9.427-1.447-14.24-.265.213-.53.424-.789.641-.658 4.885-.04 9.899 1.764 14.33 1.805 4.43 4.704 8.053 8.288 10.352.228.146.457.289.689.418.219.131.438.252.659.37 4.477 2.341 9.513 2.513 14.089.482.054-.317.098-.635.142-.957-4.489 2.124-9.479 2.025-13.909-.277z"
    fill="#fff" />
  <path
    d="M41.507 213.81l11.543 3.788-11.626-8.747c.25-13.944 4.228-28.404 4.228-28.404s24.847 8.807 31.368 24.057c6.521 15.25 1.388 25.318-7.753 31.168-9.14 5.851-18.827 5.269-25.349-9.981-1.451-3.394-2.17-7.519-2.41-11.881z"
    fill="#F2F2F2" />
  <path
    d="M55.257 216.791l.321.751c3.773 8.715 7.893 14.761 12.309 18.049.063.049.128.093.192.142l.18-.367.17-.355c-4.838-3.505-8.9-10.239-12.192-17.838-.108-.244-.217-.491-.32-.743-1.371-3.232-2.606-6.599-3.703-9.935-.087-.257-.172-.52-.257-.783-1.43-4.412-2.622-8.74-3.577-12.551a54.414 54.414 0 01-.198-.807c-1.596-6.458-2.48-11.309-2.67-12.387-.026-.131-.037-.204-.04-.22l-.333.084-.004-.002-.335.087c.003.017.042.262.126.711a208.34 208.34 0 002.595 12.031c.066.262.131.533.2.802a199.085 199.085 0 002.774 10.031c.27.884.544 1.751.823 2.602.082.265.167.528.254.785 1.186 3.606 2.414 6.911 3.685 9.913z"
    fill="#fff" />
  <path
    d="M42.227 193.92c-.04.277-.083.559-.126.848a15.953 15.953 0 005.62-1.308c.22-.093.44-.192.659-.299.642-.31 1.27-.661 1.882-1.053 2.58-1.647 4.82-3.994 6.545-6.862l-.64-.348c-1.654 2.697-3.78 4.907-6.224 6.466-.572.367-1.16.697-1.761.99-.221.109-.442.207-.66.304a15.453 15.453 0 01-5.295 1.262zM40.912 207.933c-.006.284-.01.565-.013.847 3.633.634 7.339-.027 10.673-1.902.215-.123.428-.25.642-.383.087-.05.172-.105.258-.159 2.703-1.731 5.03-4.225 6.79-7.275 1.759-3.051 2.898-6.57 3.324-10.267-.214-.147-.43-.289-.645-.431-.376 3.625-1.462 7.084-3.166 10.084s-3.976 5.451-6.622 7.144c-.064.041-.13.084-.196.121-.21.134-.423.261-.64.381-3.248 1.839-6.864 2.478-10.405 1.84z"
    fill="#fff" />
  <path
    d="M41.347 217.068c.045.322.088.64.142.956 4.576 2.032 9.613 1.859 14.09-.482.22-.117.44-.239.659-.369.231-.13.46-.272.689-.418 3.583-2.299 6.483-5.922 8.287-10.353 1.805-4.431 2.422-9.444 1.765-14.329-.26-.218-.524-.428-.79-.642.788 4.814.28 9.81-1.446 14.241-1.728 4.431-4.581 8.058-8.134 10.339a18.351 18.351 0 01-1.352.78c-4.43 2.301-9.42 2.401-13.91.277z"
    fill="#fff" />
  <path
    d="M95.624 224.488l6.872 2.255-6.922-5.207c.15-8.301 2.517-16.909 2.517-16.909s14.792 5.242 18.674 14.321c3.883 9.079.827 15.072-4.615 18.556-5.442 3.483-11.209 3.136-15.09-5.942-.865-2.021-1.292-4.477-1.436-7.074z"
    fill="#F2F2F2" />
  <path
    d="M103.809 226.263l.192.447c2.246 5.188 4.698 8.788 7.327 10.745.038.029.077.055.115.085l.107-.219.101-.211c-2.88-2.087-5.298-6.096-7.258-10.62-.064-.145-.13-.292-.191-.442a76.17 76.17 0 01-2.357-6.381 116.032 116.032 0 01-2.248-7.952 118.375 118.375 0 01-1.59-7.374l-.023-.132-.198.051-.003-.001-.199.051c.002.01.025.156.075.423.181 1.002.696 3.705 1.545 7.163.04.156.078.317.119.477.46 1.842 1.01 3.877 1.652 5.972.16.526.323 1.043.489 1.549a76.219 76.219 0 002.345 6.369z"
    fill="#fff" />
  <path
    d="M96.052 212.647l-.075.505a9.47 9.47 0 003.346-.779 7.97 7.97 0 00.392-.177c.382-.185.756-.394 1.12-.627 1.537-.981 2.869-2.378 3.897-4.086l-.382-.207c-.984 1.606-2.249 2.922-3.704 3.85a10.384 10.384 0 01-1.442.77 9.196 9.196 0 01-3.152.751zM95.27 220.989c-.005.169-.007.337-.009.505 2.163.377 4.37-.016 6.354-1.133.128-.073.255-.148.383-.227l.153-.095c1.609-1.031 2.995-2.515 4.042-4.331 1.047-1.816 1.726-3.912 1.979-6.112-.127-.088-.256-.172-.384-.257-.223 2.158-.87 4.217-1.885 6.003-1.014 1.786-2.367 3.245-3.942 4.253-.038.025-.078.05-.117.072-.125.08-.251.156-.38.227-1.934 1.095-4.087 1.476-6.195 1.095z"
    fill="#fff" />
  <path
    d="M95.528 226.428c.027.191.053.381.085.569 2.724 1.21 5.722 1.107 8.387-.287.132-.07.263-.142.393-.22.138-.077.275-.162.41-.248 2.133-1.369 3.86-3.526 4.934-6.164 1.074-2.638 1.442-5.622 1.05-8.53-.154-.13-.311-.255-.47-.382.469 2.865.167 5.84-.861 8.477-1.028 2.638-2.727 4.798-4.842 6.156-.136.086-.274.169-.412.249-.13.075-.26.147-.393.215-2.638 1.37-5.608 1.429-8.28.165zM232.878 148.163l-.029-.003c-5.466-1.104-11.537-1.104-18.562.001h-.003a1.109 1.109 0 01-.511-.117 1.34 1.34 0 01-.436-.349 1.69 1.69 0 01-.292-.527 1.955 1.955 0 01-.105-.624v-7.784c.001-.429.14-.841.389-1.144.248-.304.584-.475.935-.475a58.986 58.986 0 0118.636.002h.003c.347.006.678.179.921.482s.379.711.378 1.135v7.784c-.001.429-.14.841-.388 1.144-.249.304-.585.475-.936.475z"
    fill="#fff" />
  <path
    d="M232.878 148.163l-.029-.003c-5.466-1.104-11.537-1.104-18.562.001h-.003a1.109 1.109 0 01-.511-.117 1.34 1.34 0 01-.436-.349 1.69 1.69 0 01-.292-.527 1.955 1.955 0 01-.105-.624v-7.784c.001-.429.14-.841.389-1.144.248-.304.584-.475.935-.475a58.986 58.986 0 0118.636.002h.003c.347.006.678.179.921.482s.379.711.378 1.135v7.784c-.001.429-.14.841-.388 1.144-.249.304-.585.475-.936.475zm-9.543-11.32a54.616 54.616 0 00-9.046.737.81.81 0 00-.375.084.968.968 0 00-.32.254c-.092.11-.165.241-.216.386-.05.144-.076.299-.077.456v7.784c0 .312.102.612.282.833a.885.885 0 00.681.345c7.031-1.108 13.131-1.108 18.628 0a.89.89 0 00.672-.352c.177-.22.277-.517.277-.826v-7.784c0-.312-.102-.612-.282-.833a.885.885 0 00-.681-.345 63.656 63.656 0 00-9.543-.739z"
    fill="#96AFD2" />
  <path
    d="M223.571 145.367c1.393 0 2.522-1.382 2.522-3.087 0-1.704-1.129-3.086-2.522-3.086-1.393 0-2.523 1.382-2.523 3.086 0 1.705 1.13 3.087 2.523 3.087zM217.085 140.668h-2.163a.498.498 0 01-.382-.194.744.744 0 01-.158-.467v-.882c0-.175.057-.344.158-.468a.496.496 0 01.382-.193h2.163c.143 0 .28.069.382.193a.747.747 0 01.158.468v.882a.744.744 0 01-.158.467.498.498 0 01-.382.194zM232.22 146.84h-2.162a.497.497 0 01-.382-.193.742.742 0 01-.159-.468v-.882c0-.175.057-.343.159-.467a.495.495 0 01.382-.194h2.162c.143 0 .281.07.382.194a.744.744 0 01.158.467v.882a.747.747 0 01-.158.468.498.498 0 01-.382.193z"
    fill="#96AFD2" />
  <path
    d="M229.801 144.944l-.026-.017c-4.684-3.617-10.278-6.506-17.101-8.83l-.002-.001a1.343 1.343 0 01-.434-.352 1.687 1.687 0 01-.291-.529 1.952 1.952 0 01.001-1.249l2.474-7.171c.137-.395.396-.708.721-.869.326-.162.69-.159 1.013.007 6.013 2.034 11.784 5.015 17.169 8.869l.002.001c.318.171.567.488.695.883.128.394.124.835-.012 1.225l-2.474 7.171c-.137.395-.397.708-.722.87a1.104 1.104 0 01-1.013-.008z"
    fill="#fff" />
  <path
    d="M229.801 144.944l-.026-.017c-4.684-3.617-10.278-6.506-17.101-8.83l-.002-.001a1.343 1.343 0 01-.434-.352 1.687 1.687 0 01-.291-.529 1.952 1.952 0 01.001-1.249l2.474-7.171c.137-.395.396-.708.721-.869.326-.162.69-.159 1.013.007 6.013 2.034 11.784 5.015 17.169 8.869l.002.001c.318.171.567.488.695.883.128.394.124.835-.012 1.225l-2.474 7.171c-.137.395-.397.708-.722.87a1.104 1.104 0 01-1.013-.008zm-5.193-14.969a58.758 58.758 0 00-8.569-3.626.826.826 0 00-.372-.101.83.83 0 00-.376.082.988.988 0 00-.32.253c-.093.109-.166.24-.217.384l-2.474 7.17a1.427 1.427 0 00-.005.902c.097.29.283.521.518.643 6.829 2.324 12.45 5.227 17.162 8.862a.8.8 0 00.73-.004c.234-.119.42-.345.519-.63l2.474-7.17c.099-.288.1-.613.004-.902a1.096 1.096 0 00-.517-.642 73.043 73.043 0 00-8.557-5.221z"
    fill="#96AFD2" />
  <path
    d="M223.097 138.183c1.393 0 2.523-1.382 2.523-3.087 0-1.704-1.13-3.086-2.523-3.086-1.393 0-2.522 1.382-2.522 3.086 0 1.705 1.129 3.087 2.522 3.087zM217.634 130.525l-1.992-1.029a.62.62 0 01-.291-.361.797.797 0 01.003-.506l.28-.812a.614.614 0 01.295-.355.45.45 0 01.413.003l1.992 1.029a.618.618 0 01.291.36.796.796 0 01-.003.506l-.28.812a.613.613 0 01-.295.356.45.45 0 01-.413-.003zM229.616 143.412l-1.992-1.028a.62.62 0 01-.291-.361.797.797 0 01.003-.506l.28-.812a.613.613 0 01.295-.356.45.45 0 01.413.004l1.992 1.028a.62.62 0 01.291.361.797.797 0 01-.003.506l-.28.812a.61.61 0 01-.295.355.45.45 0 01-.413-.003z"
    fill="#96AFD2" />
  <path
    d="M234.765 140.683a4.053 4.053 0 001.138-1.324 5.047 5.047 0 00.574-1.788 5.397 5.397 0 00-.099-1.918 4.79 4.79 0 00-.753-1.686l6.382-13.685-6.678.528-5.036 12.914c-.632.771-1.01 1.799-1.063 2.888-.054 1.089.221 2.165.773 3.022.551.858 1.34 1.439 2.218 1.632.878.193 1.783-.014 2.544-.583zM283.89 233.972h-4.418l-2.101-20.849h6.52l-.001 20.849z"
    fill="#FFB6B6" />
  <path
    d="M285.017 239.211h-14.245v-.221c0-1.799.584-3.524 1.624-4.796 1.04-1.273 2.45-1.987 3.921-1.987h8.701l-.001 7.004z"
    fill="#2F2E41" />
  <path d="M253.62 233.972h-4.418l-2.101-20.849h6.52l-.001 20.849z" fill="#FFB6B6" />
  <path
    d="M254.747 239.211h-14.246v-.221c.001-1.799.585-3.524 1.625-4.796 1.039-1.273 2.45-1.987 3.92-1.987H254.747v7.004zM242.26 120.87s-1.216 21.172 1.178 31.835c2.393 10.663 2.82 75.145 2.82 75.145h8.023l6.953-87.774 16.029 88.084 7.642-.643-4.191-103.795-38.454-2.852z"
    fill="#2F2E41" />
  <path
    d="M277.399 49.5l-6.133-5.475-10.276 2.738-2.782 8.087-4.793 2.907c-1.576.957-2.939 2.366-3.971 4.11-1.033 1.742-1.704 3.765-1.956 5.895l-6.848 57.856 40.074-1.896 4.852-68.136a6.486 6.486 0 00-.196-2.108 5.757 5.757 0 00-.851-1.849 4.619 4.619 0 00-1.372-1.297 3.757 3.757 0 00-1.677-.542l-4.071-.29z"
    fill="#E4E4E4" />
  <path d="M250.879 62.277l-3.701 6.104-16.121 60.157 7.556 3.702 12.1-28.032.166-41.931z" fill="#E4E4E4" />
  <path
    d="M264.13 40.488c6.774 0 12.266-6.719 12.266-15.007s-5.492-15.007-12.266-15.007-12.266 6.72-12.266 15.007c0 8.288 5.492 15.007 12.266 15.007z"
    fill="#2F2E41" />
  <path
    d="M264.296 41.167c4.943 0 8.95-4.903 8.95-10.951 0-6.048-4.007-10.95-8.95-10.95s-8.951 4.902-8.951 10.95c0 6.048 4.008 10.95 8.951 10.95z"
    fill="#FFB9B9" />
  <path d="M271.091 28.796c-5.699-2.515-7.628-4.06-13.923 0l-2.32-11.356h18.564l-2.321 11.356z" fill="#2F2E41" />
  <path
    d="M263.135 19.062c3.845 0 6.962-3.813 6.962-8.517 0-4.704-3.117-8.517-6.962-8.517-3.844 0-6.961 3.813-6.961 8.517 0 4.704 3.117 8.517 6.961 8.517z"
    fill="#2F2E41" />
  <path
    d="M254.848 8.517c.001-2.187.69-4.29 1.925-5.872 1.234-1.582 2.919-2.522 4.705-2.625-.11-.006-.219-.02-.331-.02-1.847 0-3.617.897-4.923 2.495-1.305 1.597-2.039 3.763-2.039 6.022 0 2.26.734 4.426 2.039 6.023 1.306 1.597 3.076 2.495 4.923 2.495.112 0 .221-.015.331-.021-1.786-.102-3.471-1.042-4.705-2.624-1.235-1.583-1.924-3.685-1.925-5.873z"
    fill="#2F2E41" />
  <path opacity=".1" d="M280.392 65.741L277.895 96.2l-8.82 21.266 11.317-51.725z" fill="#000" />
  <path
    d="M16.396 159.485h-2.162v2.204h2.162v-2.204zM220.911 161.689h-4.26v-2.204h4.26v2.204zm-8.521 0h-4.261v-2.204h4.261v2.204zm-8.521 0h-4.261v-2.204h4.261v2.204zm-8.522 0h-4.261v-2.204h4.261v2.204zm-8.521 0h-4.261v-2.204h4.261v2.204zm-8.522 0h-4.26v-2.204h4.26v2.204zm-8.521 0h-4.261v-2.204h4.261v2.204zm-8.522 0h-4.26v-2.204h4.26v2.204zm-8.521 0h-4.261v-2.204h4.261v2.204zm-8.522 0h-4.26v-2.204h4.26v2.204zm-8.521 0h-4.261v-2.204h4.261v2.204zm-8.521 0h-4.261v-2.204h4.261v2.204zm-8.522 0h-4.261v-2.204h4.261v2.204zm-8.522 0h-4.26v-2.204h4.261l-.001 2.204zm-8.521 0h-4.26v-2.204h4.26v2.204zm-8.521 0h-4.261v-2.204h4.26v2.204zm-8.522 0h-4.26v-2.204h4.26v2.204zm-8.521 0h-4.261v-2.204h4.26v2.204zm-8.522 0h-4.26v-2.204h4.26v2.204zm-8.521 0h-4.26v-2.204h4.26v2.204zm-8.522 0h-4.26v-2.204h4.26v2.204zm-8.521 0H37.7v-2.204h4.26v2.204zm-8.522 0h-4.26v-2.204h4.26v2.204zm-8.521 0h-4.26v-2.204h4.26v2.204zM16.396 103.492h-2.162v2.205h2.162v-2.205zM220.911 105.697h-4.26v-2.205h4.26v2.205zm-8.521 0h-4.261v-2.205h4.261v2.205zm-8.521 0h-4.261v-2.205h4.261v2.205zm-8.522 0h-4.261v-2.205h4.261v2.205zm-8.521 0h-4.261v-2.205h4.261v2.205zm-8.522 0h-4.26v-2.205h4.26v2.205zm-8.521 0h-4.261v-2.205h4.261v2.205zm-8.522 0h-4.26v-2.205h4.26v2.205zm-8.521 0h-4.261v-2.205h4.261v2.205zm-8.522 0h-4.26v-2.205h4.26v2.205zm-8.521 0h-4.261v-2.205h4.261v2.205zm-8.521 0h-4.261v-2.205h4.261v2.205zm-8.522 0h-4.261v-2.205h4.261v2.205zm-8.522 0h-4.26v-2.205h4.261l-.001 2.205zm-8.521 0h-4.26v-2.205h4.26v2.205zm-8.521 0h-4.261v-2.205h4.26v2.205zm-8.522 0h-4.26v-2.205h4.26v2.205zm-8.521 0h-4.261v-2.205h4.26v2.205zm-8.522 0h-4.26v-2.205h4.26v2.205zm-8.521 0h-4.26v-2.205h4.26v2.205zm-8.522 0h-4.26v-2.205h4.26v2.205zm-8.521 0H37.7v-2.205h4.26v2.205zm-8.522 0h-4.26v-2.205h4.26v2.205zm-8.521 0h-4.26v-2.205h4.26v2.205zM16.396 47.5h-2.162v2.204h2.162V47.5zM220.911 49.704h-4.26V47.5h4.26v2.204zm-8.521 0h-4.261V47.5h4.261v2.204zm-8.521 0h-4.261V47.5h4.261v2.204zm-8.522 0h-4.261V47.5h4.261v2.204zm-8.521 0h-4.261V47.5h4.261v2.204zm-8.522 0h-4.26V47.5h4.26v2.204zm-8.521 0h-4.261V47.5h4.261v2.204zm-8.522 0h-4.26V47.5h4.26v2.204zm-8.521 0h-4.261V47.5h4.261v2.204zm-8.522 0h-4.26V47.5h4.26v2.204zm-8.521 0h-4.261V47.5h4.261v2.204zm-8.521 0h-4.261V47.5h4.261v2.204zm-8.522 0h-4.261V47.5h4.261v2.204zm-8.522 0h-4.26V47.5h4.261l-.001 2.204zm-8.521 0h-4.26V47.5h4.26v2.204zm-8.521 0h-4.261V47.5h4.26v2.204zm-8.522 0h-4.26V47.5h4.26v2.204zm-8.521 0h-4.261V47.5h4.26v2.204zm-8.522 0h-4.26V47.5h4.26v2.204zm-8.521 0h-4.26V47.5h4.26v2.204zm-8.522 0h-4.26V47.5h4.26v2.204zm-8.521 0H37.7V47.5h4.26v2.204zm-8.522 0h-4.26V47.5h4.26v2.204zm-8.521 0h-4.26V47.5h4.26v2.204z"
    fill="#F0F0F0" />
  <path d="M84.684 160.146H67.028v79.36h17.657v-79.36z" fill="#3F3D56" />
  <path d="M87.928 160.146H70.271v79.36h17.657v-79.36z" fill="#96AFD2" />
  <path d="M126.486 104.154h-17.657v135.352h17.657V104.154z" fill="#3F3D56" />
  <path d="M129.73 104.154h-17.658v135.352h17.658V104.154z" fill="#96AFD2" />
  <path d="M168.289 48.161h-17.658v191.345h17.658V48.161z" fill="#3F3D56" />
  <path d="M171.532 48.161h-17.658v191.345h17.658V48.161z" fill="#96AFD2" />
  <path
    d="M14.415 53.893c2.388 0 4.324-2.37 4.324-5.291 0-2.922-1.936-5.29-4.324-5.29-2.389 0-4.325 2.368-4.325 5.29s1.936 5.29 4.325 5.29zM14.415 109.885c2.388 0 4.324-2.368 4.324-5.29s-1.936-5.291-4.324-5.291c-2.389 0-4.325 2.369-4.325 5.291s1.936 5.29 4.325 5.29zM14.415 165.878c2.388 0 4.324-2.369 4.324-5.291s-1.936-5.29-4.324-5.29c-2.389 0-4.325 2.368-4.325 5.29s1.936 5.291 4.325 5.291z"
    fill="#F0F0F0" />
  <path d="M320 239.012H0V240h320v-.988z" fill="#3F3D56" />
  <path
    d="M269.995 138.464l-.029-.003c-5.466-1.105-11.537-1.104-18.562.001h-.003a1.122 1.122 0 01-.511-.118 1.327 1.327 0 01-.436-.349 1.668 1.668 0 01-.292-.527 1.922 1.922 0 01-.104-.624v-7.783c0-.429.14-.841.388-1.145.248-.303.584-.474.935-.475a59.016 59.016 0 0118.636.002h.003c.347.006.678.18.921.483.243.302.379.71.378 1.135v7.783c-.001.429-.14.841-.388 1.145-.248.303-.585.474-.936.475z"
    fill="#fff" />
  <path
    d="M269.995 138.464l-.029-.003c-5.466-1.105-11.537-1.104-18.562.001h-.003a1.122 1.122 0 01-.511-.118 1.327 1.327 0 01-.436-.349 1.668 1.668 0 01-.292-.527 1.922 1.922 0 01-.104-.624v-7.783c0-.429.14-.841.388-1.145.248-.303.584-.474.935-.475a59.016 59.016 0 0118.636.002h.003c.347.006.678.18.921.483.243.302.379.71.378 1.135v7.783c-.001.429-.14.841-.388 1.145-.248.303-.585.474-.936.475zm-9.543-11.32a54.507 54.507 0 00-9.046.736.825.825 0 00-.375.084.984.984 0 00-.32.255c-.092.109-.165.24-.215.385-.051.145-.077.3-.078.457v7.783c0 .313.102.612.282.833a.89.89 0 00.681.346c7.031-1.108 13.132-1.108 18.628-.001a.889.889 0 00.672-.351 1.33 1.33 0 00.278-.827v-7.783a1.327 1.327 0 00-.283-.833.888.888 0 00-.681-.346 63.644 63.644 0 00-9.543-.738z"
    fill="#96AFD2" />
  <path
    d="M260.688 135.667c1.393 0 2.523-1.382 2.523-3.086 0-1.705-1.13-3.086-2.523-3.086-1.393 0-2.522 1.381-2.522 3.086 0 1.704 1.129 3.086 2.522 3.086zM254.202 130.968h-2.162a.493.493 0 01-.382-.193.742.742 0 01-.159-.468v-.882c0-.175.057-.343.159-.467a.495.495 0 01.382-.194h2.162c.143 0 .28.07.382.194a.744.744 0 01.158.467v.882a.747.747 0 01-.158.468.496.496 0 01-.382.193zM269.336 137.141h-2.162a.498.498 0 01-.382-.194.744.744 0 01-.158-.467v-.882c0-.176.057-.344.158-.468a.5.5 0 01.382-.194h2.162c.144.001.281.07.383.194a.745.745 0 01.158.468v.882a.744.744 0 01-.158.467.498.498 0 01-.383.194z"
    fill="#96AFD2" />
  <path
    d="M265.943 128.261a5.347 5.347 0 01.233-1.9c.19-.605.486-1.152.867-1.602a3.603 3.603 0 011.34-1.002 3.008 3.008 0 011.561-.214l5.491-14.251 3.482 6.991-5.748 12.461c-.154 1.075-.624 2.044-1.322 2.723-.698.679-1.576 1.022-2.466.962-.891-.059-1.733-.517-2.366-1.285-.634-.768-1.015-1.794-1.072-2.883z"
    fill="#FFB6B6" />
  <path
    d="M280.873 53.717l2.261-3.608s5.51-1.373 6.446 7.886l-.589 41.164-12.074 23.251-7.842-2.45 10.252-27.62 1.546-38.623z"
    fill="#E4E4E4" />
</svg>