<svg viewBox="0 0 320 240" width="320" height="240" fill="none" xmlns="http://www.w3.org/2000/svg">
  <path
    d="M249.087 108.836C248.489 107.222 249.344 106.415 249.686 104.981C250.028 103.546 248.916 99.0634 248.916 99.0634C248.916 99.0634 245.326 83.5524 244.215 80.504C243.745 79.214 242.723 78.3265 241.701 77.7306C241.632 77.3349 241.532 77.0797 241.394 77.0072C240.404 76.4876 237.937 75.3594 236.293 75.0475C235.986 74.4934 235.621 73.9764 235.206 73.5058C235.495 72.9246 235.629 72.2727 235.594 71.6185C235.489 69.9269 234.267 68.4111 234.426 66.7242C234.547 65.4448 235.439 64.3939 235.783 63.16C235.927 62.6058 235.961 62.0265 235.883 61.4579C235.805 60.8893 235.616 60.3436 235.328 59.8548C235.581 60.1369 235.834 60.4191 236.087 60.7012C236.431 60.1605 236.597 59.5164 236.558 58.8676C236.52 58.2188 236.28 57.601 235.876 57.1088C235.075 56.1811 233.736 55.8332 233.115 54.7648C232.476 53.667 232.819 52.1753 232.215 51.0561C230.737 48.3143 226.951 50.2579 224.684 49.301C223.752 48.9077 223.044 48.4749 221.995 48.506C221.104 48.5596 220.223 48.7322 219.373 49.0196C218.154 49.3896 217.093 50.1873 216.367 51.2792C216.439 51.1937 216.517 51.115 216.602 51.0438C217.152 50.5922 218.115 50.6298 218.405 51.2957C218.475 51.4631 218.504 51.6458 218.49 51.8277C218.442 52.6304 217.774 53.2299 217.109 53.6317C216.445 54.0334 215.697 54.3695 215.264 55.0329C214.548 56.1277 214.969 57.597 214.969 58.9244C214.963 59.768 214.777 60.5994 214.424 61.3575C214.072 62.1156 213.561 62.7811 212.931 63.305L215.343 62.2707C214.191 64.385 213.435 66.7106 213.115 69.1224L216.377 66.2964C215.169 68.3129 214.435 70.6013 214.235 72.9734L216.853 70.16C216.972 70.3798 217.032 70.6295 217.025 70.8823L216.752 71.9866C216.656 72.2058 216.549 72.4197 216.432 72.6276C216.011 73.3863 215.575 74.3202 215.969 75.0948L215.971 75.0938C215.556 76.5573 214.931 78.0216 213.539 78.7332C215.083 78.9027 216.694 78.0931 217.391 76.8046C217.505 77.0365 217.642 77.2547 217.8 77.4555C217.845 77.5144 217.89 77.5728 217.934 77.6312L217.549 77.9002L216.518 78.6211C216.518 78.6211 209.765 80.0556 210.192 82.7454C210.21 82.8561 210.231 82.9881 210.255 83.1363L208.312 86.6007L205.491 96.6426C205.491 96.6426 204.038 99.8703 204.294 101.215C204.55 102.56 204.294 103.098 204.294 105.519C204.294 107.94 203.183 108.926 204.294 110.898C205.405 112.871 208.739 118.609 208.739 118.609L209.471 119.185C209.436 119.531 209.448 119.881 209.509 120.223C210.192 123.809 216.604 158.149 216.604 158.149C216.604 158.149 213.355 185.315 219.938 187.019C220.763 187.233 221.574 187.427 222.361 187.599L223.357 194.461L222.758 203.158C222.758 203.158 218.228 213.917 226.52 214.544C234.812 215.172 231.05 205.22 231.05 205.22C231.488 204.37 231.667 203.4 231.563 202.44C231.479 201.642 230.767 197.489 230.069 193.494C233.216 193.098 232.627 189.596 232.208 188.056C232.389 187.944 232.525 187.767 232.589 187.557C232.684 187.199 232.463 185.792 232.063 183.821C231.737 181.861 231.18 178.688 230.8 176.538L232.846 176.888L241.479 123.809C241.479 123.809 241.536 122.964 241.51 121.728C242.691 121.088 243.908 120.525 245.155 120.044C247.976 118.878 249.087 114.574 250.028 112.781C250.968 110.988 249.686 110.45 249.087 108.836ZM218.433 75.0412C218.712 74.8392 219.039 74.7228 219.378 74.7048C219.305 75.1219 218.621 75.2437 218.048 75.4621C218.153 75.3005 218.283 75.1583 218.433 75.0412ZM214.125 101.753C214.817 102.947 213.563 106.18 212.433 108.747C211.786 108.161 211.11 108.346 211.902 106.684C212.442 105.631 212.763 104.47 212.842 103.277C212.842 103.072 212.943 101.566 213.785 100.94C213.874 101.222 213.987 101.494 214.125 101.753ZM211.53 112.053C211.922 111.886 212.516 111.629 213.317 111.343C212.933 111.872 212.495 112.501 212.054 113.189C211.887 113.056 211.753 112.884 211.662 112.687C211.571 112.49 211.526 112.272 211.53 112.053ZM239.257 113.23C238.737 112.65 238.317 112.132 237.971 111.669C238.616 111.847 239.273 112.038 239.941 112.243C240.274 112.295 240.613 112.272 240.937 112.174C240.966 112.794 240.967 113.678 240.967 113.678L240.03 114.358C239.817 113.95 239.557 113.572 239.257 113.23V113.23ZM241.91 110.12C241.9 110.129 241.889 110.14 241.879 110.149C241.833 109.795 241.756 109.445 241.65 109.105C241.09 107.252 240.791 103.964 240.632 101.158L242.249 106.864C242.249 106.864 242.334 109.733 241.91 110.12Z"
    fill="#D0CDE1" />
  <path
    d="M208.704 86.5538C208.704 86.5538 199.934 70.7439 199.66 69.0192C199.386 67.2945 195.001 64.1326 195.001 64.1326C193.503 62.5612 191.045 62.064 188.457 62.0898C189.432 61.2445 185.953 60.6763 185.683 60.1083C185.409 59.5334 184.586 59.5334 183.49 58.671C182.394 57.8087 179.658 58.5272 179.657 58.5273C179.246 57.6195 178.96 56.6549 178.807 55.6625C179.975 54.2132 180.615 52.3763 180.612 50.4787C180.612 50.458 180.611 50.4377 180.611 50.4171C180.681 50.531 180.751 50.6456 180.82 50.7636C181.334 47.5382 182.24 44.857 180.513 41.9147C179.288 39.8292 177.372 38.2925 175.132 37.6002L173.487 38.9806L174.126 37.3706C173.589 37.2845 173.044 37.2515 172.5 37.272L171.02 39.2681L171.633 37.3404C170.348 37.5078 169.111 37.9525 167.999 38.6465C166.886 39.3405 165.923 40.2687 165.17 41.3726C163.286 44.2217 163.412 48.1822 165.265 51.0536C165.271 51.0335 165.276 51.0138 165.282 50.9937C165.364 52.337 165.766 53.6373 166.451 54.7756C167.136 55.9138 168.082 56.8536 169.203 57.509L169.669 61.4144C169.25 61.8223 168.712 62.071 168.143 62.1204C167.32 62.1204 166.498 64.4201 166.498 64.4201C166.498 64.4201 166.032 64.6667 165.53 65.831C164.236 66.7548 160.29 69.6567 158.826 71.6845C157.959 72.1316 157.029 73.1259 157.18 75.3432C157.454 79.3675 157.18 98.0518 157.18 98.0518C157.18 98.0518 154.713 113.862 155.536 115.011C156.358 116.161 155.262 119.898 155.262 119.898L156.084 120.09V121.048C156.084 121.048 153.611 133.072 157.454 132.546C163.758 131.684 159.098 121.91 159.098 121.91V120.792L160.195 121.048C160.195 121.048 160.743 117.024 161.839 116.736C162.22 116.636 162.668 115.562 163.09 114.204C163.335 116.322 163.483 117.599 163.483 117.599L165.198 117.199L165.676 119.036C165.794 119.105 165.917 119.164 166.044 119.211L165.676 121.335C165.676 121.335 165.402 123.635 165.676 125.072C165.814 125.797 170.902 141.29 175.911 156.471L175.816 160.141C175.816 160.141 173.35 163.016 173.898 165.028C174.446 167.04 172.528 183.712 172.528 183.712L170.883 192.048L171.297 192.182L170.917 193.643C170.59 193.816 170.299 194.056 170.061 194.348C167.869 196.935 165.128 204.409 165.128 204.409C165.128 204.409 160.195 212.17 167.869 211.882C175.542 211.595 176.09 208.721 176.09 208.721C176.09 208.721 177.187 201.247 177.187 200.959C177.187 200.672 176.639 197.717 176.639 197.717L176.426 197.471L176.574 193.885L178.009 194.348C178.009 194.348 179.379 186.874 180.475 186.012C180.859 185.71 181.878 182.353 183.042 178.041C184.231 181.633 185.383 194.056 185.757 195.183C185.625 195.373 185.508 195.574 185.409 195.785C184.177 198.265 182.804 200.665 181.298 202.971C181.298 202.971 172.528 208.433 181.298 209.87C181.298 209.87 186.231 210.158 188.697 208.433C191.164 206.708 197.741 204.121 197.741 203.546C197.741 202.971 196.097 194.52 194.453 195.44L193.351 192.783L194.453 192.336L187.514 159.67C187.678 158.974 187.799 158.267 187.875 157.554C187.875 156.049 191.424 126.738 192.327 119.304C196.301 120.485 199.934 111.85 199.934 111.85L200.835 110.149L202.127 110.987C202.127 110.987 203.223 108.113 204.867 107.825C206.512 107.538 209.526 92.3028 209.526 90.2907C209.501 88.9988 209.221 87.7265 208.704 86.5538ZM195.935 109.075C195.665 108.626 195.352 108.207 195.001 107.825C195.717 105.868 196.268 103.848 196.645 101.789C197.193 98.6267 195.823 88.2785 195.823 88.2785L195.799 87.5757C197.144 89.4277 198.838 91.8969 198.838 92.5902C198.838 92.9249 198.912 93.255 199.055 93.5544C199.197 93.8537 199.405 94.1141 199.66 94.3149L198.016 100.351C198.016 100.351 196.919 103.226 196.645 104.663C196.481 105.515 196.389 106.381 196.371 107.25L196.76 107.502L195.935 109.075Z"
    fill="#D0CDE1" />
  <path
    d="M83.2363 91.8743L84.6987 91.5292L78.6693 73.7072L65.6513 68.6768C65.6513 68.6768 65.6014 68.7348 65.5094 68.8348C64.399 67.7077 63.9277 66.0721 63.7308 64.7847C64.7777 64.3412 65.7183 63.6607 66.4856 62.792C67.2528 61.9232 67.8278 60.8875 68.1694 59.7588C68.511 58.6301 68.6109 57.4362 68.4619 56.2623C68.3129 55.0885 67.9187 53.9636 67.3074 52.968C68.3801 52.6979 68.7631 51.6772 69.1231 50.4601C68.9002 50.3911 68.6728 50.3392 68.4428 50.3047C68.6115 49.908 68.7802 49.5112 68.9489 49.1144C68.6524 49.0865 68.3559 49.0586 68.0594 49.0307C68.1352 48.6598 68.211 48.2889 68.2868 47.918C67.9087 48.1917 67.5307 48.4655 67.1526 48.7392C67.281 48.3499 67.3129 47.9326 67.2453 47.5268C67.1778 47.1209 67.0129 46.7397 66.7663 46.419C66.2642 45.7826 65.6094 45.2983 64.8693 45.016C63.4219 44.4187 61.8455 44.2514 60.3134 44.5322C58.7812 44.8131 57.3524 45.5313 56.184 46.6081L56.1021 46.2731C53.7883 48.1387 52.2743 50.8905 51.892 53.9251C51.5291 56.9248 52.903 59.9791 54.6888 62.3529C54.6737 62.2493 54.6576 62.1459 54.6412 62.0427C54.7184 62.1543 54.7981 62.2637 54.8803 62.3709L55.0999 71.1202L54.5501 71.6144C54.5492 71.6148 45.3256 75.9916 44.966 81.2193L44.965 81.2231C44.4114 83.768 44.1373 96.9908 44.1373 96.9908H44.8962L44.1373 102.165L39.2041 122.286C39.2041 122.286 32.9007 130.91 38.3819 132.635C41.788 133.706 42.7598 129.562 43.0076 126.269C43.205 127.085 43.7952 127.637 44.9595 127.748C45.0511 127.757 45.1489 127.764 45.2436 127.772C42.6518 134.797 44.4114 157.643 44.4114 157.643C43.041 160.517 59.2108 180.352 59.2108 180.352L60.1845 179.807L60.3952 180.249C59.8533 180.303 59.4849 180.352 59.4849 180.352V189.263C59.4849 189.263 57.0183 198.174 60.3071 199.898C61.1581 200.345 62.0457 200.02 62.8941 199.295C62.7319 202.045 62.4996 206.149 62.4996 207.085C62.4996 208.522 66.0624 211.109 66.0624 211.109C66.0624 211.109 66.8846 214.271 73.4621 214.271C80.0397 214.271 75.1065 205.935 75.1065 205.935L71.5437 197.599C71.5437 197.599 71.2771 197.735 70.4704 197.047L70.7593 193.713L72.3659 193.862L74.5584 160.23C74.5584 160.23 76.4768 130.335 76.7509 125.736C76.8151 124.261 76.782 122.784 76.6518 121.314L84.6988 103.89L83.2363 91.8743ZM77.299 103.027L76.4768 106.032V99.3862L77.299 103.027ZM43.0841 124.344C43.0909 123.291 43.041 122.574 43.041 122.574L48.399 111.335L48.2483 114.813C48.2483 114.813 43.9572 120.506 43.0841 124.344ZM55.648 156.781L60.8552 137.521L63.8699 160.805L63.6538 169.27C63.2866 168.492 62.9919 167.679 62.7737 166.841C61.9515 163.392 55.648 156.781 55.648 156.781Z"
    fill="#D0CDE1" />
  <path
    d="M129.813 202.53C127.245 201.421 122.261 199.045 121.657 197.777C121.052 196.51 118.031 186.687 118.031 186.687L117.253 186.747C117.153 182.284 116.725 164.99 116.068 162.923C116.068 162.923 119.24 135.514 112.896 124.583L111.752 119.739C112.128 117.798 112.08 113.301 111.838 112.542C111.536 111.592 115.312 108.581 114.255 106.68C113.198 104.779 110.328 98.2834 110.328 98.2834C110.328 98.2834 110.63 94.1642 106.551 90.3619C106.551 90.3619 105.36 83.285 99.9889 83.1796C99.2629 81.8506 98.2466 79.7374 98.5456 78.7965C98.8658 77.7892 100.09 74.6485 100.781 72.8907C101.149 72.7167 101.501 72.5108 101.836 72.2752C106.107 70.2679 109.118 65.4427 109.118 59.8059C109.118 53.7718 105.669 48.6651 100.916 46.9527C101.127 46.3674 101.214 45.7405 101.169 45.1162C101.125 44.4919 100.95 43.8856 100.657 43.3399C100.364 42.7943 99.9611 42.3228 99.4756 41.9586C98.9901 41.5944 98.4343 41.3465 97.8475 41.2323C97.2606 41.1181 96.657 41.1405 96.0793 41.2979C95.5016 41.4553 94.9639 41.7438 94.5042 42.1431C94.0445 42.5424 93.674 43.0427 93.4188 43.6087C93.1637 44.1746 93.0302 44.7924 93.0277 45.4184C92.7663 44.7686 92.6624 44.0609 92.7252 43.3586C92.7881 42.6563 93.0158 41.9813 93.388 41.3938C93.7601 40.8063 94.2652 40.3246 94.8581 39.9917C95.451 39.6588 96.1133 39.4851 96.7858 39.486C97.0505 39.4864 97.3146 39.5137 97.5743 39.5676C96.6788 39.1209 95.6587 39.032 94.7052 39.3176C93.7517 39.6033 92.9302 40.2438 92.3947 41.1192C91.8592 41.9946 91.6464 43.0447 91.7962 44.0728C91.9461 45.101 92.4482 46.0365 93.2086 46.7041C93.2555 46.8606 93.3111 47.014 93.375 47.1637C88.9022 49.0568 85.7116 54.0024 85.7116 59.8059C85.7116 65.1892 88.4576 69.8328 92.4251 71.9882C92.4039 73.7393 91.9898 76.6916 89.6873 78.4908C88.4979 77.9208 86.8473 77.2951 85.7882 77.5789C85.2406 77.1311 84.414 76.9833 83.2894 78.1628C81.0237 80.5393 79.06 86.718 79.06 90.5204C79.06 94.3227 79.5132 116.344 79.5132 116.344C79.5132 116.344 77.0963 117.295 78.7579 118.721C79.1011 119.021 79.5316 119.189 79.9782 119.197L81.6279 132.029C81.6279 132.029 80.5705 144.387 84.6489 144.545C84.9687 144.563 85.2865 144.482 85.5618 144.31L82.5342 158.645C82.5342 158.645 75.5858 163.398 70.148 172.746C67.3471 177.56 65.9507 180.522 65.2532 182.265L64.2569 181.618L60.7828 188.589C60.7828 188.589 53.0791 193.5 54.7407 197.144C56.4023 200.788 57.9128 201.738 57.9128 201.738L58.9702 201.263L60.9338 205.065C60.9338 205.065 66.0696 212.828 74.3774 208.868C74.7673 208.318 74.9778 207.651 74.9778 206.966C74.9778 206.281 74.7673 205.615 74.3774 205.065C73.0179 203.006 69.5437 198.57 69.5437 198.57L71.8095 186.529L71.3407 186.224L85.7063 167.993C85.7063 167.993 89.9357 165.299 91.4463 162.923C92.9568 160.546 102.322 135.99 102.322 135.99L107.609 161.655C107.609 161.655 107.307 171.003 108.666 177.023C109.407 180.4 109.89 183.834 110.111 187.292L109.724 187.321L110.63 194.45C110.63 194.45 106.702 204.59 109.421 205.382C111.356 205.906 113.325 206.277 115.312 206.491L115.615 205.382C115.615 205.382 127.246 212.036 131.475 207.125C131.475 207.125 132.381 203.639 129.813 202.53ZM88.4252 124.741C88.8783 125.217 88.7273 127.435 88.7273 127.435L87.821 133.613L86.9158 137.899C86.7906 135.874 86.5379 133.86 86.1594 131.871L85.7413 120.03C85.8235 120.084 85.9137 120.124 86.0083 120.147C86.3104 120.147 86.1594 117.453 86.1594 117.453C86.1594 117.453 86.3357 116.972 86.5557 116.213C87.143 118.057 87.8599 119.26 88.7273 119.513L88.8783 121.573C88.8783 121.573 86.9146 122.523 88.7273 122.523C88.8324 122.519 88.9368 122.503 89.0386 122.475L88.8783 123.315C88.8783 123.315 87.972 124.266 88.4252 124.741Z"
    fill="#D0CDE1" />
  <path
    d="M127.231 209.911C194.292 209.911 248.656 208.971 248.656 207.811C248.656 206.652 194.292 205.712 127.231 205.712C60.1708 205.712 5.80734 206.652 5.80734 207.811C5.80734 208.971 60.1708 209.911 127.231 209.911Z"
    fill="#3F3D56" />
  <path
    d="M169.729 218.657C243.495 218.657 303.295 216.229 303.295 213.234C303.295 210.239 243.495 207.811 169.729 207.811C95.9628 207.811 36.1634 210.239 36.1634 213.234C36.1634 216.229 95.9628 218.657 169.729 218.657Z"
    fill="#3F3D56" />
  <path
    d="M145.078 226.705C181.28 226.705 210.627 224.277 210.627 221.281C210.627 218.286 181.28 215.858 145.078 215.858C108.876 215.858 79.5291 218.286 79.5291 221.281C79.5291 224.277 108.876 226.705 145.078 226.705Z"
    fill="#3F3D56" />
  <path
    d="M239.816 230.553C255.936 230.553 269.004 229.3 269.004 227.754C269.004 226.208 255.936 224.955 239.816 224.955C223.695 224.955 210.627 226.208 210.627 227.754C210.627 229.3 223.695 230.553 239.816 230.553Z"
    fill="#3F3D56" />
  <path
    d="M199.786 240C207.431 240 213.629 238.747 213.629 237.201C213.629 235.655 207.431 234.402 199.786 234.402C192.14 234.402 185.942 235.655 185.942 237.201C185.942 238.747 192.14 240 199.786 240Z"
    fill="#3F3D56" />
  <path
    d="M87.0347 228.104C94.6804 228.104 100.878 226.851 100.878 225.305C100.878 223.759 94.6804 222.506 87.0347 222.506C79.3891 222.506 73.191 223.759 73.191 225.305C73.191 226.851 79.3891 228.104 87.0347 228.104Z"
    fill="#3F3D56" />
  <path d="M155.419 193.641L156.754 203.438L163.425 202.738L162.758 192.592L155.419 193.641Z" fill="#FFB8B8" />
  <path d="M123.729 193.641L122.395 203.438L115.723 202.738L116.39 192.592L123.729 193.641Z" fill="#FFB8B8" />
  <path
    d="M114.055 92.177C114.055 92.177 108.05 99.5244 109.385 111.07C110.719 122.616 113.054 148.857 113.054 148.857L114.722 195.391L125.397 194.691L127.065 155.155L132.402 123.316L146.746 160.403C146.746 160.403 153.751 195.041 154.085 195.041C154.418 195.041 164.092 193.991 164.092 193.991L159.422 153.056C159.422 153.056 152.083 93.5765 147.747 92.5269C143.41 91.4772 114.055 92.177 114.055 92.177Z"
    fill="#2F2E41" />
  <path
    d="M164.092 201.339C164.092 201.339 158.088 197.14 155.753 202.038C153.418 206.937 155.419 210.435 155.419 210.435C155.419 210.435 157.421 211.835 156.42 213.234C155.419 214.634 155.086 223.731 163.759 222.331C172.432 220.932 168.095 211.485 168.095 211.485L164.092 201.339Z"
    fill="#2F2E41" />
  <path
    d="M115.056 201.339C115.056 201.339 121.06 197.14 123.395 202.038C125.73 206.937 123.729 210.435 123.729 210.435C123.729 210.435 121.727 211.835 122.728 213.234C123.729 214.634 124.062 223.731 115.389 222.331C106.716 220.932 111.053 211.485 111.053 211.485L115.056 201.339Z"
    fill="#2F2E41" />
  <path
    d="M122.228 24.1258C122.228 24.1258 125.23 32.8728 122.895 37.7711C120.56 42.6693 126.564 48.2674 126.564 48.2674C126.564 48.2674 142.243 39.8703 140.241 35.6718C138.24 31.4733 134.904 25.8752 135.571 22.3765L122.228 24.1258Z"
    fill="#FFB8B8" />
  <path
    d="M128.065 27.4497C133.961 27.4497 138.74 22.4371 138.74 16.2537C138.74 10.0703 133.961 5.05762 128.065 5.05762C122.17 5.05762 117.391 10.0703 117.391 16.2537C117.391 22.4371 122.17 27.4497 128.065 27.4497Z"
    fill="#FFB8B8" />
  <path
    d="M120.393 37.2463C120.393 37.2463 131.104 46.5944 139.092 33.3484L147.413 38.2959L151.75 91.4772C151.75 91.4772 127.398 106.172 115.723 93.5765L117.391 44.2439L120.393 37.2463Z"
    fill="#D0CDE1" />
  <path d="M123.757 32.0095L108.718 42.4943L114.055 68.3852L107.05 108.621L118.392 90.7773L123.757 32.0095Z"
    fill="#575A89" />
  <path
    d="M137.048 29.0913L140.742 31.6484L155.753 37.2464L153.418 80.6311L159.756 108.621L150.749 113.52C150.749 113.52 149.081 100.224 138.74 93.5766C128.399 86.9289 134.689 31.0826 137.048 29.0913Z"
    fill="#575A89" />
  <path
    d="M112.053 97.0752L116.39 100.224C116.39 100.224 110.886 106.347 109.885 105.297C109.596 105.006 109.371 104.651 109.227 104.258C109.082 103.865 109.023 103.443 109.051 103.023L108.05 100.574L112.053 97.0752Z"
    fill="#FFB8B8" />
  <path
    d="M140.882 96.3945L139.407 98.8246C139.407 98.8246 135.071 100.924 136.071 102.323C137.072 103.723 145.412 106.872 147.08 103.723L148.748 100.574L140.882 96.3945Z"
    fill="#FFB8B8" />
  <path
    d="M110.719 42.1445L108.384 42.4944L104.548 68.5602C104.548 68.5602 103.047 73.2836 104.715 84.4796C106.383 95.6757 108.034 102.966 108.034 102.966L115.389 97.4251L112.053 88.3283L116.39 55.09L110.719 42.1445Z"
    fill="#575A89" />
  <path
    d="M150.415 36.5466L155.753 37.2464C155.753 37.2464 161.757 43.894 162.758 50.8916C163.759 57.8891 163.425 77.8321 163.425 77.8321L148.08 103.373L139.741 97.0753L151.416 75.383L145.745 49.4921L150.415 36.5466Z"
    fill="#575A89" />
  <path
    d="M138.245 6.12743C136.631 3.37812 134.104 1.35218 131.151 0.43953L128.982 2.25935L129.825 0.136735C129.116 0.0232762 128.399 -0.0202284 127.682 0.00679155L125.73 2.63831L126.538 0.0969301C124.845 0.317636 123.213 0.903935 121.747 1.81885C120.281 2.73377 119.011 3.95746 118.018 5.41276C115.534 9.1689 115.115 14.3925 117.558 18.178C118.228 16.0166 119.042 13.9885 119.713 11.8271C120.24 11.9024 120.774 11.9051 121.301 11.8352L122.117 9.83855L122.345 11.7507C124.874 11.5196 128.625 11.0123 131.022 10.5475L130.789 9.08063L132.183 10.2996C132.918 10.1223 133.354 9.96146 133.318 9.83855C135.101 12.8532 136.867 14.7788 138.65 17.7934C139.327 13.5411 140.522 10.0065 138.245 6.12743Z"
    fill="#2F2E41" />
  <path
    d="M137.654 17.4177C138.053 17.4177 138.376 16.739 138.376 15.9018C138.376 15.0647 138.053 14.386 137.654 14.386C137.255 14.386 136.931 15.0647 136.931 15.9018C136.931 16.739 137.255 17.4177 137.654 17.4177Z"
    fill="#FFB8B8" />
  <path
    d="M253.115 213.787C253.422 224.829 247.271 228.875 239.552 229.112C239.373 229.117 239.194 229.121 239.016 229.122C238.658 229.125 238.304 229.118 237.953 229.103C230.971 228.799 225.445 224.912 225.159 214.644C224.863 204.017 237.439 190.21 238.383 189.188L238.384 189.187C238.42 189.148 238.439 189.129 238.439 189.129C238.439 189.129 252.807 202.747 253.115 213.787Z"
    fill="#96AFD2" />
  <path
    d="M238.996 227.438L243.9 219.79L239.006 228.261L239.016 229.122C238.658 229.125 238.304 229.118 237.953 229.103L238.196 218.04L238.189 217.955L238.198 217.938L238.222 216.893L232.852 208.715L238.215 216.111L238.234 216.332L238.418 207.973L233.78 199.495L238.431 206.505L238.383 189.188L238.383 189.131L238.384 189.187L238.692 202.835L242.92 197.291L238.706 204.011L238.798 211.487L242.688 204.19L238.813 212.586L238.864 216.744L244.521 206.579L238.881 218.194L238.996 227.438Z"
    fill="#3F3D56" />
  <path
    d="M74.3145 197.343C74.622 208.384 68.4709 212.431 60.7516 212.667C60.5722 212.673 60.3937 212.676 60.2161 212.677C59.8581 212.68 59.5036 212.674 59.1525 212.659C52.1711 212.355 46.6449 208.468 46.359 198.199C46.0631 187.573 58.6389 173.765 59.5824 172.744L59.584 172.743C59.6199 172.704 59.6383 172.685 59.6383 172.685C59.6383 172.685 74.0071 186.302 74.3145 197.343Z"
    fill="#96AFD2" />
  <path
    d="M60.1958 210.994L65.0994 203.346L60.2058 211.817L60.2161 212.678C59.8581 212.681 59.5036 212.674 59.1525 212.659L59.3957 201.596L59.3891 201.511L59.398 201.494L59.4213 200.449L54.0513 192.271L59.415 199.666L59.434 199.887L59.6177 191.529L54.9795 183.051L59.6309 190.061L59.5824 172.744L59.5825 172.687L59.5841 172.743L59.892 186.391L64.1192 180.847L59.9058 187.567L59.9981 195.043L63.888 187.746L60.0124 196.142L60.0637 200.3L65.7207 190.135L60.0809 201.75L60.1958 210.994Z"
    fill="#3F3D56" />
  <path
    d="M207.92 229.354C208.101 235.835 204.49 238.21 199.959 238.349C199.854 238.352 199.749 238.354 199.645 238.355C199.435 238.356 199.227 238.353 199.021 238.344C194.923 238.165 191.679 235.884 191.511 229.856C191.337 223.619 198.719 215.514 199.273 214.914L199.274 214.914C199.295 214.891 199.306 214.88 199.306 214.88C199.306 214.88 207.74 222.873 207.92 229.354Z"
    fill="#96AFD2" />
  <path
    d="M199.633 237.366L202.511 232.877L199.639 237.849L199.645 238.354C199.435 238.356 199.227 238.352 199.021 238.343L199.163 231.85L199.159 231.8L199.165 231.79L199.178 231.176L196.026 226.376L199.175 230.717L199.186 230.847L199.294 225.941L196.571 220.964L199.301 225.079L199.273 214.914L199.273 214.881L199.274 214.914L199.455 222.925L201.936 219.671L199.463 223.615L199.517 228.003L201.8 223.72L199.525 228.649L199.555 231.089L202.876 225.123L199.566 231.94L199.633 237.366Z"
    fill="#3F3D56" />
  <path
    d="M319.971 17.9092C319.98 17.8773 319.99 17.845 320 17.813C319.996 17.827 319.991 17.8405 319.987 17.8546L319.971 17.9092Z"
    fill="#2F2E41" />
  <path
    d="M273.355 203.561L298.063 165.024L273.405 207.707L273.457 212.044C271.653 212.058 269.867 212.027 268.098 211.949L269.324 156.207L269.29 155.777L269.335 155.694L269.453 150.426L242.395 109.223L269.421 146.484L269.517 147.598L270.442 105.482L247.072 62.7631L270.509 98.0836L270.264 10.8312L270.265 10.5408L270.273 10.8264L271.824 79.593L293.124 51.66L271.894 85.5171L272.359 123.188L291.959 86.4227L272.431 128.727L272.69 149.674L301.193 98.4596L272.776 156.981L273.355 203.561Z"
    fill="#3F3D56" />
  <path
    d="M21.0675 202.067L37.8804 175.844L21.1019 204.889L21.137 207.839C19.9096 207.849 18.6941 207.828 17.4905 207.775L18.3244 169.844L18.3016 169.551L18.3323 169.495L18.4122 165.911L1.52588e-05 137.873L18.3904 163.228L18.4557 163.986L19.0855 135.327L3.18241 106.258L19.1308 130.293L18.9644 70.92L18.9647 70.7224L18.9701 70.9168L20.0258 117.71L34.5196 98.7028L20.0733 121.742L20.3896 147.376L33.7269 122.358L20.4386 151.145L20.6147 165.399L40.0107 130.549L20.6737 170.371L21.0675 202.067Z"
    fill="#3F3D56" />
</svg>