<svg viewBox="0 0 12 12" xmlns="http://www.w3.org/2000/svg">
  <path
    d="M8.5725 4.65887L6.11625 8.20637C6.09019 8.24281 6.05352 8.27031 6.01125 8.28512C5.96752 8.30027 5.91998 8.30027 5.87625 8.28512C5.83236 8.27148 5.79415 8.24381 5.7675 8.20637C5.7428 8.16723 5.73099 8.12133 5.73375 8.07512L5.83125 6.12512L4.245 5.78762C4.21174 5.78028 4.18082 5.76482 4.155 5.74262C4.12776 5.7212 4.10699 5.69264 4.095 5.66012C4.08571 5.62701 4.08571 5.59198 4.095 5.55887C4.09787 5.52458 4.11093 5.49193 4.1325 5.46512L6.585 1.91762C6.61146 1.87916 6.64959 1.85024 6.69375 1.83512C6.73624 1.82026 6.78251 1.82026 6.825 1.83512C6.86916 1.85024 6.90729 1.87916 6.93375 1.91762C6.95947 1.95491 6.9714 1.99999 6.9675 2.04512L6.87 4.00262L8.45625 4.34012C8.49068 4.34732 8.52285 4.36276 8.55 4.38512C8.57527 4.40837 8.59567 4.43641 8.61 4.46762C8.62127 4.50034 8.62511 4.53516 8.62121 4.56954C8.61732 4.60392 8.6058 4.63701 8.5875 4.66637L8.5725 4.65887Z" />
  <path
    d="M6 11.1837C5.93577 11.1825 5.87227 11.1698 5.8125 11.1462C5.75199 11.1212 5.69715 11.0842 5.65125 11.0375L3.33 8.71621C3.28486 8.67157 3.24903 8.61843 3.22457 8.55986C3.20011 8.50128 3.18751 8.43843 3.1875 8.37496C3.18649 8.30967 3.1986 8.24485 3.22312 8.18434C3.24763 8.12382 3.28406 8.06885 3.33023 8.02268C3.37639 7.97652 3.43137 7.94009 3.49188 7.91557C3.55239 7.89106 3.61722 7.87894 3.6825 7.87996C3.74775 7.8793 3.81248 7.89156 3.87298 7.91601C3.93347 7.94047 3.98854 7.97664 4.035 8.02246L6 9.98371L10.2862 5.69746C10.3327 5.65164 10.3878 5.61547 10.4483 5.59101C10.5088 5.56656 10.5735 5.5543 10.6388 5.55496C10.7037 5.55508 10.7679 5.56807 10.8278 5.59318C10.8876 5.61828 10.9419 5.655 10.9875 5.70121C11.034 5.74654 11.071 5.80078 11.0961 5.8607C11.1212 5.92062 11.134 5.98498 11.1337 6.04996C11.1333 6.18029 11.0822 6.30534 10.9912 6.39871L6.3525 11.0375C6.30588 11.0833 6.25122 11.1202 6.19125 11.1462C6.13028 11.1701 6.06549 11.1828 6 11.1837Z" />
  <path
    d="M6 11.1837C6.06423 11.1825 6.12773 11.1698 6.1875 11.1462C6.24801 11.1212 6.30285 11.0842 6.34875 11.0375L8.67 8.71621C8.71514 8.67157 8.75097 8.61843 8.77543 8.55986C8.79989 8.50128 8.81249 8.43843 8.8125 8.37496C8.81351 8.30967 8.8014 8.24485 8.77688 8.18434C8.75237 8.12382 8.71594 8.06885 8.66977 8.02268C8.62361 7.97652 8.56863 7.94009 8.50812 7.91557C8.44761 7.89106 8.38278 7.87894 8.3175 7.87996C8.25225 7.8793 8.18752 7.89156 8.12702 7.91601C8.06653 7.94047 8.01146 7.97664 7.965 8.02246L6 9.98371L1.71375 5.69746C1.66729 5.65164 1.61222 5.61547 1.55173 5.59101C1.49123 5.56656 1.4265 5.5543 1.36125 5.55496C1.29634 5.55508 1.2321 5.56807 1.17224 5.59318C1.11238 5.61828 1.05809 5.655 1.0125 5.70121C0.965951 5.74654 0.929011 5.80078 0.903884 5.8607C0.878757 5.92062 0.865957 5.98498 0.86625 6.04996C0.866726 6.18029 0.917821 6.30534 1.00875 6.39871L5.6475 11.0375C5.69412 11.0833 5.74878 11.1202 5.80875 11.1462C5.86972 11.1701 5.93451 11.1828 6 11.1837Z"
    fill-opacity="0.5" />
</svg>